<svg width="670" height="204" viewBox="0 0 670 204" fill="none" xmlns="http://www.w3.org/2000/svg">
<path d="M92.08 170.81C92.24 171.74 92.39 172.67 92.56 173.59C93.73 179.88 95.92 185.75 99.83 190.88C102.69 194.63 106.22 197.6 110.42 199.78C116.9 203.15 123.83 204.19 131.03 203.84C139.09 203.45 146.75 201.35 154.04 197.98C164.99 192.92 174.86 186.23 183.51 177.78C183.66 177.63 183.81 177.46 184.07 177.18C183.64 177.14 183.33 177.09 183.01 177.08C175.23 176.95 167.47 176.52 159.77 175.27C152.6 174.11 145.71 172.05 139.07 169.11C138.2 168.72 137.34 168.29 136.49 167.85C134.67 166.89 133.85 165.42 134.11 163.62C134.46 161.08 136.87 159.6 139.3 160.39C142.24 161.35 145.15 162.4 148.13 163.2C154.1 164.81 160.17 165.87 166.33 166.39C175.2 167.15 184.05 166.88 192.88 165.8C193.05 165.78 193.22 165.73 193.55 165.67C203.08 151.33 206.12 135.43 204.37 118.2C203.69 118.71 203.17 119.09 202.67 119.49C196.3 124.45 189.61 128.91 182.49 132.72C168.48 140.2 153.61 144.76 137.69 145.62C136.3 145.69 134.91 145.76 133.52 145.76C131.81 145.76 130.38 145.13 129.41 143.66C128.22 141.86 128.73 139.72 130.68 138.82C131.57 138.41 132.59 138.14 133.56 138.11C141.42 137.85 149.01 136.25 156.42 133.72C162.9 131.51 169.12 128.68 175.19 125.51C184.39 120.72 193.16 115.21 201.88 109.62C202.21 109.41 202.51 109.17 202.9 108.88C200.77 98.4102 197.16 88.4602 192.72 78.6902C191.14 80.4902 189.64 82.2402 188.1 83.9402C180.82 91.9702 172.75 99.0802 163.65 105C157.24 109.16 150.46 112.62 143.28 115.26C141.17 116.03 139.03 116.11 136.92 115.19C135.89 114.74 135.07 114.04 134.47 113.11C133.45 111.53 133.57 109.6 134.74 108.12C136.05 106.46 137.88 105.69 139.83 105.13C142.42 104.39 145.06 103.77 147.61 102.92C156.25 100.02 163.97 95.4402 170.97 89.6402C177.54 84.2002 183.21 77.9302 188.3 71.1102C188.43 70.9402 188.53 70.7502 188.71 70.4602C184.6 62.4402 179.92 54.7102 174.86 47.0602C174.6 47.4102 174.4 47.6202 174.27 47.8702C169.99 55.8702 164.62 63.0402 157.91 69.1702C154.86 71.9602 151.67 74.6102 148.03 76.6202C145.87 77.8202 143.54 78.2602 141.12 77.3602C137.86 76.1402 136.88 72.8902 138.91 70.0602C140.17 68.3102 141.92 67.1902 143.81 66.2602C149.08 63.6602 153.86 60.3702 158.09 56.2802C161.83 52.6602 164.99 48.5802 167.51 44.0202C168.29 42.6202 169.01 41.1902 169.79 39.7302C160.27 26.3102 150.6 13.1402 139.66 0.970215C124.69 11.8802 107.69 17.1602 89.51 19.7802C89.46 22.5402 89.31 25.2702 89.4 28.0002C89.67 36.3002 91.67 44.1802 95.49 51.5602C96.79 54.0702 98.35 56.4402 99.78 58.8802C100.76 60.5502 101.44 62.3302 101.52 64.2902C101.67 67.6902 98.91 70.0402 95.56 69.4302C94.19 69.1802 93.01 68.5702 91.96 67.7002C90.71 66.6602 89.76 65.3702 89.02 63.9202C86.28 58.5402 84.33 52.8702 83 46.9902C81.8 41.6702 81.16 36.2802 81.05 30.8202C81 28.5202 81.02 26.2302 81.01 23.7202C72.33 27.9502 63.94 32.4802 55.88 37.5902C55.89 37.9502 55.87 38.2102 55.9 38.4702C56.63 44.5702 57.67 50.6002 59.3 56.5402C60.73 61.7602 62.49 66.8502 64.79 71.7402C68.85 80.3702 74.24 88.0402 81.22 94.5802C82.63 95.9002 83.83 97.3602 84.55 99.1902C86.25 103.48 83.07 106.35 79.58 106.19C77.05 106.07 75.06 104.9 73.52 103.04C71.66 100.8 69.9 98.4702 68.22 96.0902C64.8 91.2502 61.88 86.1002 59.31 80.7602C54.18 70.1002 50.74 58.9102 48.53 47.3102C48.27 45.9402 48.02 44.5802 47.74 43.0802C38.5 49.6102 29.96 56.7902 22.34 65.1502C22.69 65.9002 22.98 66.5702 23.33 67.2202C25.22 70.7902 27.09 74.3702 29.03 77.9102C34.6 88.0302 40.71 97.8002 48.02 106.77C53.42 113.41 59.42 119.43 66.37 124.47C67.88 125.57 69.47 126.55 71.02 127.59C72.18 128.37 73.27 129.23 73.86 130.56C74.77 132.62 73.76 134.56 71.55 135.01C70.04 135.32 68.68 134.87 67.44 134.11C58.61 128.66 50.41 122.37 43.11 114.98C36.47 108.27 30.69 100.88 25.86 92.7702C24.48 90.4602 23 88.1902 21.85 85.7602C19.87 81.6002 18.11 77.3402 16.26 73.1202C16.24 73.0802 16.2 73.0502 16.06 72.8902C5.38999 87.5302 -0.510017 103.6 0.489983 122C2.91998 123.7 5.26998 125.5 7.76998 127.05C11.42 129.31 15.11 131.53 18.91 133.53C23.73 136.06 28.76 138.16 33.93 139.87C39.83 141.82 45.84 143.42 51.98 144.43C52.49 144.51 53 144.68 53.49 144.84C55.54 145.52 56.24 147.93 54.85 149.6C53.94 150.7 52.72 151.31 51.29 151.21C47.87 150.97 44.43 150.79 41.04 150.31C37.35 149.8 33.68 149.05 30.03 148.27C27.83 147.8 25.66 147.11 23.51 146.42C21.07 145.63 18.62 144.84 16.25 143.85C12 142.07 7.79 140.21 3.82 137.84C3.64 137.73 3.42999 137.68 2.99999 137.52C3.57999 139.54 4.06 141.41 4.66 143.24C7.5 151.88 11.43 160.02 16.2 167.75C20.54 174.8 25.95 180.89 33.04 185.29C42.87 191.39 53.39 193.1 64.55 189.68C70.67 187.81 76.1 184.64 80.91 180.44C82.84 178.76 84.61 176.9 86.46 175.12C86.64 174.95 86.83 174.77 87.2 174.72L92.08 170.81Z" fill="white"/>
<path d="M317.84 91.3801V92.5601C317.84 103.45 312.69 112.23 302.39 118.9C298.07 121.65 292.88 123.9 286.8 125.67L317.7 170.84L306.66 170.68C303.81 171.27 300.68 169.16 297.24 164.35L275.47 130.07C274.49 128.4 273.36 127.27 272.09 126.69C271.5 126.4 270.96 126.25 270.47 126.25H257.66V164.94C257.66 168.57 256.09 170.53 252.95 170.83H240V60.04C240.29 57.3 241.47 55.38 243.53 54.3C244.41 53.91 245.44 53.6601 246.62 53.5601C260.16 53.5601 268 53.66 270.16 53.85C280.36 54.73 285.7 55.2301 286.2 55.3201C296.2 57.1801 303.36 60.4701 307.68 65.1801C314.45 72.6401 317.84 81.3701 317.84 91.3801ZM294.59 110.8C299.3 104.23 301.65 97.66 301.65 91.09C301.65 84.03 299.44 77.3801 295.03 71.1501C290.62 64.9201 285.07 60.8301 278.41 58.8701C274.29 57.6901 269.24 57.1 263.26 57.1C259.53 57.39 257.67 59.06 257.67 62.1V122.27C263.56 122.66 270.22 122.47 277.68 121.68C283.85 121.49 289.49 117.86 294.59 110.8Z" fill="white"/>
<path d="M390.24 159.2C392.5 157.63 393.97 156.85 394.65 156.85C395.33 156.85 395.68 157.19 395.68 157.88C395.68 159.45 393.47 161.7 389.06 164.65C381.7 169.46 373.91 171.86 365.67 171.86C362.43 171.86 358.7 171.42 354.49 170.54C345.86 168.77 339.09 164.46 334.19 157.59C328.5 149.84 325.66 140.57 325.66 129.78C325.66 114.97 330.27 101.73 339.49 90.0599C346.55 81.1399 354.74 76.6699 364.06 76.6699C367.88 76.6699 371.46 77.5999 374.8 79.4699C378.53 81.5299 382.06 84.6399 385.39 88.8099C388.72 92.9799 391.37 97.86 393.33 103.45C395.98 110.91 397.3 117.28 397.3 122.58C397 126.7 394.89 128.96 390.96 129.35H342.42V142.44C342.72 147.44 343.65 151.76 345.22 155.39C349.14 164.12 356.01 168.48 365.82 168.48C366.9 168.48 368.03 168.43 369.2 168.33C373.22 168.33 377.98 166.76 383.47 163.62C384.55 163.02 386.8 161.55 390.24 159.2ZM342.86 103.88C342.76 104.86 342.61 112.12 342.42 125.65H376.99C378.56 125.26 379.74 124.42 380.52 123.15C380.81 122.66 381.01 122.07 381.11 121.38C381.31 120.01 381.35 117.61 381.26 114.17C380.77 104.26 379.1 96.4199 376.26 90.6299C373.22 84.4499 368.61 81.3599 362.43 81.3599C358.8 81.3599 355.37 82.5899 352.13 85.0399C347.03 88.9699 343.94 95.2499 342.86 103.88Z" fill="white"/>
<path d="M422.02 44V164.94C422.02 168.57 419.61 170.53 414.81 170.83H404.66V49.45C404.66 46.02 406.28 44.2 409.52 44.01H422.02V44Z" fill="white"/>
<path d="M501.46 126.24V170.82H497.05H490.72C487.29 170.82 485.42 169.1 485.13 165.67V148.46C480.52 155.52 475.71 160.87 470.71 164.5C468.16 166.36 465.32 167.84 462.18 168.91C458.65 170.19 455.07 170.82 451.44 170.82C446.44 170.82 442.32 169.55 439.08 166.99C436.43 164.93 434.37 162.14 432.9 158.6C430.74 153.4 429.66 147.86 429.66 141.97C429.66 128.34 434.79 118.58 445.04 112.69C448.79 110.53 453.08 109.45 457.91 109.45C461.36 109.45 464.71 110.04 467.97 111.22C472.8 112.89 476.8 115.14 479.95 117.99C481.82 119.66 483.2 120.49 484.09 120.49C484.58 120.49 484.83 120.2 484.83 119.61C484.83 119.51 484.88 118.36 484.98 116.15C485.08 113.94 485.13 111.91 485.13 110.04C485.13 94.8397 481.68 86.1597 474.77 83.9997C472.01 83.1197 469.29 82.6797 466.63 82.6797C464.36 82.6797 462.19 83.0198 460.12 83.7098C457.46 84.5898 454.15 86.4597 450.21 89.2997C447.15 91.5597 444.04 93.8097 440.89 96.0697C437.44 98.5197 435.32 99.4998 434.53 99.0098C434.33 98.8098 434.23 98.5698 434.23 98.2698C434.23 97.7798 434.91 96.6997 436.29 95.0297C438.84 92.0897 442.12 89.1498 446.15 86.1998C448.21 84.7298 450.42 83.3097 452.77 81.9297C459.44 77.9097 466.55 76.0397 474.1 76.3397C476.75 76.4397 479.1 76.7297 481.16 77.2197C486.75 78.3997 491.26 81.2898 494.7 85.8998C497.84 90.0198 499.75 95.0497 500.44 100.98C501.12 106.95 501.46 115.36 501.46 126.24ZM485.13 135.81C485.13 134.83 484.98 133.9 484.69 133.01C483.81 130.46 481.98 127.67 479.19 124.62C476.4 121.58 473.79 119.37 471.35 118C467.24 115.55 463.38 114.57 459.77 115.06C457.62 115.35 455.42 116.56 453.17 118.66C450.92 120.77 449.41 122.9 448.63 125.06C446.67 130.06 445.94 135.75 446.43 142.13C447.31 153.41 451.8 159.54 459.91 160.52C467.92 161.5 475.15 156.6 481.6 145.81C483.96 141.89 485.13 138.55 485.13 135.81Z" fill="white"/>
<path d="M508.66 77.1001H520.87C524.2 77.1001 526.7 78.3801 528.37 80.9301C529.15 82.3001 535.77 93.5301 548.23 114.62L561.77 81.5201C562.55 78.7801 564.03 77.3001 566.18 77.1101H580.16C579.47 78.1901 578.39 79.7101 576.92 81.6701L555.29 110.21C552.35 114.13 550.88 116.68 550.88 117.86C550.88 118.65 551.08 119.38 551.47 120.07C552.25 121.35 561.87 138.31 580.31 170.97H568.54C566.77 171.26 565.06 170.38 563.39 168.32C562.6 167.34 555.45 155.81 541.91 133.75L526.76 166.56C525.48 169.31 523.33 170.78 520.29 170.97H508.67L538.09 132.13C538.68 131.35 538.97 130.41 538.97 129.33C538.97 128.25 538.65 127.15 538.01 126.02C537.37 124.9 527.58 108.59 508.66 77.1001Z" fill="white"/>
<path d="M587.66 76.8101H600.78C603.04 76.8101 604.91 78.4201 606.38 81.6501C607.07 83.2201 617.31 107.3 637.12 153.89C638.69 149.18 640.26 144.51 641.82 139.89C643.68 134.39 645 129.57 645.79 125.45C648.14 111.79 650.64 97.5401 653.29 82.7101C653.97 80.3501 654.32 79.13 654.32 79.03C655 77.56 656.18 76.8201 657.85 76.8201H669.46L646.8 141.34C644.54 147.82 641.06 156.76 636.35 168.15C632.33 177.68 627.38 185.53 621.49 191.72C616.98 196.43 611.58 199.72 605.31 201.59C602.27 202.47 599.47 202.92 596.92 202.92C593.68 202.92 591.23 202.18 589.56 200.71C588.68 199.92 588.24 198.26 588.24 195.71V184.68C589.91 188.01 592.58 190.74 596.26 192.85C599.94 194.96 603.54 195.72 607.07 195.13C612.96 194.34 618.84 189.87 624.73 181.73C627.08 178.39 627.92 175.25 627.23 172.3C626.84 170.89 613.65 139.07 587.66 76.8101Z" fill="white"/>
</svg>
