<svg width="430" height="384" viewBox="0 0 430 384" fill="none" xmlns="http://www.w3.org/2000/svg">
<g clip-path="url(#clip0_411_3)">
<path d="M208.08 170.81C208.24 171.74 208.39 172.67 208.56 173.59C209.73 179.88 211.92 185.75 215.83 190.88C218.69 194.63 222.22 197.6 226.42 199.78C232.9 203.15 239.83 204.19 247.03 203.84C255.09 203.45 262.75 201.35 270.04 197.98C280.99 192.92 290.86 186.23 299.51 177.78C299.66 177.63 299.81 177.46 300.07 177.18C299.64 177.14 299.33 177.09 299.01 177.08C291.23 176.95 283.47 176.52 275.77 175.27C268.6 174.11 261.71 172.05 255.07 169.11C254.2 168.72 253.34 168.29 252.49 167.85C250.67 166.89 249.85 165.42 250.11 163.62C250.46 161.08 252.87 159.6 255.3 160.39C258.24 161.35 261.15 162.4 264.13 163.2C270.1 164.81 276.17 165.87 282.33 166.39C291.2 167.15 300.05 166.88 308.88 165.8C309.05 165.78 309.22 165.73 309.55 165.67C319.08 151.33 322.12 135.43 320.37 118.2C319.69 118.71 319.17 119.09 318.67 119.49C312.3 124.45 305.61 128.91 298.49 132.72C284.48 140.2 269.61 144.76 253.69 145.62C252.3 145.69 250.91 145.76 249.52 145.76C247.81 145.76 246.38 145.13 245.41 143.66C244.22 141.86 244.73 139.72 246.68 138.82C247.57 138.41 248.59 138.14 249.56 138.11C257.42 137.85 265.01 136.25 272.42 133.72C278.9 131.51 285.12 128.68 291.19 125.51C300.39 120.72 309.16 115.21 317.88 109.62C318.21 109.41 318.51 109.17 318.9 108.88C316.77 98.41 313.16 88.46 308.72 78.69C307.14 80.49 305.64 82.24 304.1 83.94C296.82 91.97 288.75 99.08 279.65 105C273.24 109.16 266.46 112.62 259.28 115.26C257.17 116.03 255.03 116.11 252.92 115.19C251.89 114.74 251.07 114.04 250.47 113.11C249.45 111.53 249.57 109.6 250.74 108.12C252.05 106.46 253.88 105.69 255.83 105.13C258.42 104.39 261.06 103.77 263.61 102.92C272.25 100.02 279.97 95.44 286.97 89.64C293.54 84.2 299.21 77.93 304.3 71.11C304.43 70.94 304.53 70.75 304.71 70.46C300.6 62.44 295.92 54.71 290.86 47.06C290.6 47.41 290.4 47.62 290.27 47.87C285.99 55.87 280.62 63.04 273.91 69.17C270.86 71.96 267.67 74.61 264.03 76.62C261.87 77.82 259.54 78.26 257.12 77.36C253.86 76.14 252.88 72.89 254.91 70.06C256.17 68.31 257.92 67.19 259.81 66.26C265.08 63.66 269.86 60.37 274.09 56.28C277.83 52.66 280.99 48.58 283.51 44.02C284.29 42.62 285.01 41.19 285.79 39.73C276.27 26.31 266.6 13.14 255.66 0.969971C240.69 11.88 223.69 17.16 205.51 19.78C205.46 22.54 205.31 25.27 205.4 28C205.67 36.3 207.67 44.18 211.49 51.56C212.79 54.07 214.35 56.44 215.78 58.88C216.76 60.55 217.44 62.33 217.52 64.29C217.67 67.69 214.91 70.04 211.56 69.43C210.19 69.18 209.01 68.57 207.96 67.7C206.71 66.66 205.76 65.37 205.02 63.92C202.28 58.54 200.33 52.87 199 46.99C197.8 41.67 197.16 36.28 197.05 30.82C197 28.52 197.02 26.23 197.01 23.72C188.33 27.95 179.94 32.48 171.88 37.59C171.89 37.95 171.87 38.21 171.9 38.47C172.63 44.57 173.67 50.6 175.3 56.54C176.73 61.76 178.49 66.85 180.79 71.74C184.85 80.37 190.24 88.04 197.22 94.58C198.63 95.9 199.83 97.36 200.55 99.19C202.25 103.48 199.07 106.35 195.58 106.19C193.05 106.07 191.06 104.9 189.52 103.04C187.66 100.8 185.9 98.47 184.22 96.09C180.8 91.25 177.88 86.1 175.31 80.76C170.18 70.1 166.74 58.91 164.53 47.31C164.27 45.94 164.02 44.58 163.74 43.08C154.5 49.61 145.96 56.79 138.34 65.15C138.69 65.9 138.98 66.57 139.33 67.22C141.22 70.79 143.09 74.37 145.03 77.91C150.6 88.03 156.71 97.8 164.02 106.77C169.42 113.41 175.42 119.43 182.37 124.47C183.88 125.57 185.47 126.55 187.02 127.59C188.18 128.37 189.27 129.23 189.86 130.56C190.77 132.62 189.76 134.56 187.55 135.01C186.04 135.32 184.68 134.87 183.44 134.11C174.61 128.66 166.41 122.37 159.11 114.98C152.47 108.27 146.69 100.88 141.86 92.77C140.48 90.46 139 88.19 137.85 85.76C135.87 81.6 134.11 77.34 132.26 73.12C132.24 73.08 132.2 73.05 132.06 72.89C121.39 87.53 115.49 103.6 116.49 122C118.92 123.7 121.27 125.5 123.77 127.05C127.42 129.31 131.11 131.53 134.91 133.53C139.73 136.06 144.76 138.16 149.93 139.87C155.83 141.82 161.84 143.42 167.98 144.43C168.49 144.51 169 144.68 169.49 144.84C171.54 145.52 172.24 147.93 170.85 149.6C169.94 150.7 168.72 151.31 167.29 151.21C163.87 150.97 160.43 150.79 157.04 150.31C153.35 149.8 149.68 149.05 146.03 148.27C143.83 147.8 141.66 147.11 139.51 146.42C137.07 145.63 134.62 144.84 132.25 143.85C128 142.07 123.79 140.21 119.82 137.84C119.64 137.73 119.43 137.68 119 137.52C119.58 139.54 120.06 141.41 120.66 143.24C123.5 151.88 127.43 160.02 132.2 167.75C136.54 174.8 141.95 180.89 149.04 185.29C158.87 191.39 169.39 193.1 180.55 189.68C186.67 187.81 192.1 184.64 196.91 180.44C198.84 178.76 200.61 176.9 202.46 175.12C202.64 174.95 202.83 174.77 203.2 174.72L208.08 170.81Z" fill="#00C897"/>
<path d="M78.18 271.51V272.69C78.18 283.58 73.03 292.36 62.73 299.03C58.41 301.78 53.22 304.03 47.14 305.8L78.04 350.97L67 350.81C64.15 351.4 61.02 349.29 57.58 344.48L35.81 310.2C34.83 308.53 33.7 307.4 32.43 306.82C31.84 306.53 31.3 306.38 30.81 306.38H18V345.07C18 348.7 16.43 350.66 13.29 350.96H0.339996V240.17C0.629996 237.43 1.81 235.51 3.87 234.43C4.75 234.04 5.77999 233.79 6.95999 233.69C20.5 233.69 28.34 233.79 30.5 233.98C40.7 234.86 46.04 235.36 46.54 235.45C56.54 237.31 63.7 240.6 68.02 245.31C74.79 252.77 78.18 261.5 78.18 271.51ZM54.93 290.93C59.64 284.36 61.99 277.79 61.99 271.22C61.99 264.16 59.78 257.51 55.37 251.28C50.96 245.05 45.41 240.96 38.75 239C34.63 237.82 29.58 237.23 23.6 237.23C19.87 237.52 18.01 239.19 18.01 242.23V302.4C23.9 302.79 30.56 302.6 38.02 301.81C44.19 301.62 49.83 297.99 54.93 290.93Z" fill="#00C897"/>
<path d="M150.27 339.33C152.53 337.76 154 336.98 154.68 336.98C155.36 336.98 155.71 337.32 155.71 338.01C155.71 339.58 153.5 341.83 149.09 344.78C141.73 349.59 133.94 351.99 125.7 351.99C122.46 351.99 118.73 351.55 114.52 350.67C105.89 348.9 99.12 344.59 94.22 337.72C88.53 329.97 85.69 320.7 85.69 309.91C85.69 295.1 90.3 281.86 99.52 270.19C106.58 261.27 114.77 256.8 124.09 256.8C127.91 256.8 131.49 257.73 134.83 259.6C138.56 261.66 142.09 264.77 145.42 268.94C148.75 273.11 151.4 277.99 153.36 283.58C156.01 291.04 157.33 297.41 157.33 302.71C157.03 306.83 154.92 309.09 150.99 309.48H102.45V322.57C102.75 327.57 103.68 331.89 105.25 335.52C109.17 344.25 116.04 348.61 125.85 348.61C126.93 348.61 128.06 348.56 129.23 348.46C133.25 348.46 138.01 346.89 143.5 343.75C144.58 343.15 146.83 341.68 150.27 339.33ZM102.89 284.01C102.79 284.99 102.64 292.25 102.45 305.78H137.02C138.59 305.39 139.77 304.55 140.55 303.28C140.84 302.79 141.04 302.2 141.14 301.51C141.34 300.14 141.38 297.74 141.29 294.3C140.8 284.39 139.13 276.55 136.29 270.76C133.25 264.58 128.64 261.49 122.46 261.49C118.83 261.49 115.4 262.72 112.16 265.17C107.06 269.1 103.97 275.38 102.89 284.01Z" fill="#00C897"/>
<path d="M182.19 224.13V345.07C182.19 348.7 179.78 350.66 174.98 350.96H164.83V229.58C164.83 226.15 166.45 224.33 169.69 224.14H182.19V224.13Z" fill="#00C897"/>
<path d="M261.78 306.37V350.95H257.37H251.04C247.61 350.95 245.74 349.23 245.45 345.8V328.59C240.84 335.65 236.03 341 231.03 344.63C228.48 346.49 225.64 347.97 222.5 349.04C218.97 350.32 215.39 350.95 211.76 350.95C206.76 350.95 202.64 349.68 199.4 347.12C196.75 345.06 194.69 342.27 193.22 338.73C191.06 333.53 189.98 327.99 189.98 322.1C189.98 308.47 195.11 298.71 205.36 292.82C209.11 290.66 213.4 289.58 218.23 289.58C221.68 289.58 225.03 290.17 228.29 291.35C233.12 293.02 237.12 295.27 240.27 298.12C242.14 299.79 243.52 300.62 244.41 300.62C244.9 300.62 245.15 300.33 245.15 299.74C245.15 299.64 245.2 298.49 245.3 296.28C245.4 294.07 245.45 292.04 245.45 290.17C245.45 274.97 242 266.29 235.09 264.13C232.33 263.25 229.61 262.81 226.95 262.81C224.68 262.81 222.51 263.15 220.44 263.84C217.78 264.72 214.47 266.59 210.53 269.43C207.47 271.69 204.36 273.94 201.21 276.2C197.76 278.65 195.64 279.63 194.85 279.14C194.65 278.94 194.55 278.7 194.55 278.4C194.55 277.91 195.23 276.83 196.61 275.16C199.16 272.22 202.44 269.28 206.47 266.33C208.53 264.86 210.74 263.44 213.09 262.06C219.76 258.04 226.87 256.17 234.42 256.47C237.07 256.57 239.42 256.86 241.48 257.35C247.07 258.53 251.58 261.42 255.02 266.03C258.16 270.15 260.07 275.18 260.76 281.11C261.44 287.08 261.78 295.49 261.78 306.37ZM245.45 315.94C245.45 314.96 245.3 314.03 245.01 313.14C244.13 310.59 242.3 307.8 239.51 304.75C236.72 301.71 234.11 299.5 231.67 298.13C227.56 295.68 223.7 294.7 220.09 295.19C217.94 295.48 215.74 296.69 213.49 298.79C211.24 300.9 209.73 303.03 208.95 305.19C206.99 310.19 206.26 315.88 206.75 322.26C207.63 333.54 212.12 339.67 220.23 340.65C228.24 341.63 235.47 336.73 241.92 325.94C244.28 322.02 245.45 318.68 245.45 315.94Z" fill="#00C897"/>
<path d="M269.29 257.23H281.5C284.83 257.23 287.33 258.51 289 261.06C289.78 262.43 296.4 273.66 308.86 294.75L322.4 261.65C323.18 258.91 324.66 257.43 326.81 257.24H340.79C340.1 258.32 339.02 259.84 337.55 261.8L315.92 290.34C312.98 294.26 311.51 296.81 311.51 297.99C311.51 298.78 311.71 299.51 312.1 300.2C312.88 301.48 322.5 318.44 340.94 351.1H329.17C327.4 351.39 325.69 350.51 324.02 348.45C323.23 347.47 316.08 335.94 302.54 313.88L287.39 346.69C286.11 349.44 283.96 350.91 280.92 351.1H269.3L298.72 312.26C299.31 311.48 299.6 310.54 299.6 309.46C299.6 308.38 299.28 307.28 298.64 306.15C298 305.03 288.21 288.72 269.29 257.23Z" fill="#00C897"/>
<path d="M347.85 256.94H360.97C363.23 256.94 365.1 258.55 366.57 261.78C367.26 263.35 377.5 287.43 397.31 334.02C398.88 329.31 400.45 324.64 402.01 320.02C403.87 314.52 405.19 309.7 405.98 305.58C408.33 291.92 410.83 277.67 413.48 262.84C414.16 260.48 414.51 259.26 414.51 259.16C415.19 257.69 416.37 256.95 418.04 256.95H429.65L406.99 321.47C404.73 327.95 401.25 336.89 396.54 348.28C392.52 357.81 387.57 365.66 381.68 371.85C377.17 376.56 371.77 379.85 365.5 381.72C362.46 382.6 359.66 383.05 357.11 383.05C353.87 383.05 351.42 382.31 349.75 380.84C348.87 380.05 348.43 378.39 348.43 375.84V364.81C350.1 368.14 352.77 370.87 356.45 372.98C360.13 375.09 363.73 375.85 367.26 375.26C373.15 374.47 379.03 370 384.92 361.86C387.27 358.52 388.11 355.38 387.42 352.43C387.03 351.02 373.84 319.2 347.85 256.94Z" fill="#00C897"/>
</g>
<defs>
<clipPath id="clip0_411_3">
<rect width="430" height="384" fill="white"/>
</clipPath>
</defs>
</svg>
