<svg width="80" height="20" viewBox="0 0 80 20" fill="none" xmlns="http://www.w3.org/2000/svg">
<path d="M7.82 2.74C9.54 2.74 10.9667 3.16667 12.1 4.02C13.2333 4.86 13.96 6 14.28 7.44H11.32C11.04 6.8 10.5933 6.29333 9.98 5.92C9.38 5.53333 8.66667 5.34 7.84 5.34C7.02667 5.34 6.30667 5.52667 5.68 5.9C5.05333 6.27333 4.56667 6.80667 4.22 7.5C3.87333 8.19333 3.7 9.00667 3.7 9.94C3.7 11.42 4.09333 12.5733 4.88 13.4C5.68 14.2267 6.76667 14.64 8.14 14.64C9.15333 14.64 10.02 14.34 10.74 13.74C11.4733 13.14 11.9467 12.3067 12.16 11.24H7.38V9.22H14.52V11.94C14.32 12.8733 13.9267 13.7333 13.34 14.52C12.7667 15.3067 12.0067 15.94 11.06 16.42C10.1267 16.8867 9.05333 17.12 7.84 17.12C6.45333 17.12 5.22667 16.82 4.16 16.22C3.10667 15.6067 2.28667 14.76 1.7 13.68C1.12667 12.5867 0.84 11.34 0.84 9.94C0.84 8.54 1.12667 7.3 1.7 6.22C2.28667 5.12667 3.10667 4.27333 4.16 3.66C5.21333 3.04667 6.43333 2.74 7.82 2.74ZM21.7516 5.78C22.8316 5.78 23.7982 6.00667 24.6516 6.46C25.5182 6.91333 26.1982 7.57333 26.6916 8.44C27.1849 9.29333 27.4316 10.3 27.4316 11.46C27.4316 12.62 27.1849 13.6267 26.6916 14.48C26.1982 15.3333 25.5182 15.9933 24.6516 16.46C23.7982 16.9133 22.8316 17.14 21.7516 17.14C20.6716 17.14 19.6982 16.9133 18.8316 16.46C17.9782 15.9933 17.3049 15.3333 16.8116 14.48C16.3182 13.6267 16.0716 12.62 16.0716 11.46C16.0716 10.3 16.3182 9.29333 16.8116 8.44C17.3049 7.57333 17.9782 6.91333 18.8316 6.46C19.6982 6.00667 20.6716 5.78 21.7516 5.78ZM21.7516 8.22C20.9649 8.22 20.2982 8.5 19.7516 9.06C19.2049 9.60667 18.9316 10.4067 18.9316 11.46C18.9316 12.5133 19.2049 13.32 19.7516 13.88C20.2982 14.4267 20.9649 14.7 21.7516 14.7C22.5382 14.7 23.2049 14.4267 23.7516 13.88C24.2982 13.32 24.5716 12.5133 24.5716 11.46C24.5716 10.4067 24.2982 9.60667 23.7516 9.06C23.2049 8.5 22.5382 8.22 21.7516 8.22ZM36.0445 5.78C36.9779 5.78 37.8179 6.00667 38.5645 6.46C39.3112 6.91333 39.8912 7.57333 40.3045 8.44C40.7312 9.29333 40.9445 10.3 40.9445 11.46C40.9445 12.62 40.7312 13.6333 40.3045 14.5C39.8912 15.3533 39.3112 16.0067 38.5645 16.46C37.8179 16.9133 36.9779 17.14 36.0445 17.14C35.1112 17.14 34.3112 16.92 33.6445 16.48C32.9912 16.0267 32.5245 15.4267 32.2445 14.68V17H29.4245V2.2H32.2445V8.22C32.5245 7.47333 32.9912 6.88 33.6445 6.44C34.3112 6 35.1112 5.78 36.0445 5.78ZM35.1645 8.24C34.3112 8.24 33.6045 8.53333 33.0445 9.12C32.4979 9.69333 32.2245 10.4733 32.2245 11.46C32.2245 12.4333 32.4979 13.2133 33.0445 13.8C33.6045 14.3733 34.3112 14.66 35.1645 14.66C36.0445 14.66 36.7512 14.38 37.2845 13.82C37.8179 13.2467 38.0845 12.46 38.0845 11.46C38.0845 10.46 37.8179 9.67333 37.2845 9.1C36.7512 8.52667 36.0445 8.24 35.1645 8.24ZM42.6202 2.74C42.6202 2.28667 42.7802 1.92 43.1002 1.64C43.4202 1.34667 43.8402 1.2 44.3602 1.2C44.8802 1.2 45.3002 1.34667 45.6202 1.64C45.9402 1.92 46.1002 2.28667 46.1002 2.74C46.1002 3.18 45.9402 3.54667 45.6202 3.84C45.3002 4.12 44.8802 4.26 44.3602 4.26C43.8402 4.26 43.4202 4.12 43.1002 3.84C42.7802 3.54667 42.6202 3.18 42.6202 2.74ZM45.7602 5.92V17H42.9402V5.92H45.7602ZM53.4313 5.78C54.5113 5.78 55.4779 6.00667 56.3313 6.46C57.1979 6.91333 57.8779 7.57333 58.3713 8.44C58.8646 9.29333 59.1113 10.3 59.1113 11.46C59.1113 12.62 58.8646 13.6267 58.3713 14.48C57.8779 15.3333 57.1979 15.9933 56.3313 16.46C55.4779 16.9133 54.5113 17.14 53.4313 17.14C52.3513 17.14 51.3779 16.9133 50.5113 16.46C49.6579 15.9933 48.9846 15.3333 48.4913 14.48C47.9979 13.6267 47.7513 12.62 47.7513 11.46C47.7513 10.3 47.9979 9.29333 48.4913 8.44C48.9846 7.57333 49.6579 6.91333 50.5113 6.46C51.3779 6.00667 52.3513 5.78 53.4313 5.78ZM53.4313 8.22C52.6446 8.22 51.9779 8.5 51.4313 9.06C50.8846 9.60667 50.6113 10.4067 50.6113 11.46C50.6113 12.5133 50.8846 13.32 51.4313 13.88C51.9779 14.4267 52.6446 14.7 53.4313 14.7C54.2179 14.7 54.8846 14.4267 55.4313 13.88C55.9779 13.32 56.2513 12.5133 56.2513 11.46C56.2513 10.4067 55.9779 9.60667 55.4313 9.06C54.8846 8.5 54.2179 8.22 53.4313 8.22ZM64.9242 5.78C66.2709 5.78 67.3509 6.12 68.1642 6.8C68.9776 7.48 69.4842 8.38667 69.6842 9.52H67.0442C66.9376 8.98667 66.6976 8.56 66.3242 8.24C65.9509 7.92 65.4642 7.76 64.8642 7.76C64.3842 7.76 64.0109 7.87333 63.7442 8.1C63.4776 8.32667 63.3442 8.63333 63.3442 9.02C63.3442 9.32667 63.4509 9.57333 63.6642 9.76C63.8776 9.94667 64.1442 10.0933 64.4642 10.2C64.7842 10.3067 65.2442 10.4333 65.8442 10.58C66.6842 10.7667 67.3642 10.9667 67.8842 11.18C68.4176 11.38 68.8709 11.7067 69.2442 12.16C69.6309 12.6 69.8242 13.2 69.8242 13.96C69.8242 14.9067 69.4509 15.6733 68.7042 16.26C67.9709 16.8467 66.9776 17.14 65.7242 17.14C64.2842 17.14 63.1309 16.82 62.2642 16.18C61.3976 15.5267 60.8709 14.6 60.6842 13.4H63.3842C63.4509 13.9467 63.6909 14.38 64.1042 14.7C64.5176 15.0067 65.0576 15.16 65.7242 15.16C66.2042 15.16 66.5709 15.0467 66.8242 14.82C67.0776 14.58 67.2042 14.2733 67.2042 13.9C67.2042 13.58 67.0909 13.32 66.8642 13.12C66.6509 12.92 66.3776 12.7667 66.0442 12.66C65.7242 12.5533 65.2642 12.4267 64.6642 12.28C63.8376 12.0933 63.1642 11.9067 62.6442 11.72C62.1376 11.52 61.6976 11.2067 61.3242 10.78C60.9642 10.3533 60.7842 9.76667 60.7842 9.02C60.7842 8.06 61.1509 7.28 61.8842 6.68C62.6176 6.08 63.6309 5.78 64.9242 5.78Z" fill="white"/>
<path d="M80 6L80 9L76 9C74.8954 9 74 8.10457 74 7L74 6L80 6Z" fill="#F45A2A"/>
<path d="M74 3H77V9H76C74.8954 9 74 8.10457 74 7V3Z" fill="#F98864"/>
</svg>
