<?xml version="1.0" encoding="utf-8"?>
<!-- Generator: Adobe Illustrator 25.0.1, SVG Export Plug-In . SVG Version: 6.00 Build 0)  -->
<svg version="1.1" id="f20e0c25-d928-42cc-98d1-13cc230663ea"
	 xmlns="http://www.w3.org/2000/svg" xmlns:xlink="http://www.w3.org/1999/xlink" x="0px" y="0px" viewBox="0 0 820.2 780.8"
	 style="enable-background:new 0 0 820.2 780.8;" xml:space="preserve">
<style type="text/css">
	.st0{opacity:0.5;}
	.st1{fill:#47E6B1;}
	.st2{opacity:0.5;fill:#4D8AF0;enable-background:new    ;}
	.st3{opacity:0.5;fill:#FDD835;enable-background:new    ;}
	.st4{opacity:0.5;fill:#F55F44;enable-background:new    ;}
	.st5{opacity:0.5;fill:#47E6B1;enable-background:new    ;}
	.st6{opacity:0.4;fill:#D4D4D4;enable-background:new    ;}
	.st7{display:none;}
	.st8{fill:#FFFFFF;}
</style>
<g class="st0">
	<rect x="15.3" y="737" class="st1" width="3.8" height="21.3"/>
	<rect x="6.5" y="745.8" class="st1" width="21.3" height="3.8"/>
</g>
<g class="st0">
	<rect x="451.5" class="st1" width="3.8" height="21.3"/>
	<rect x="442.7" y="8.8" class="st1" width="21.3" height="3.8"/>
</g>
<path class="st2" d="M771.1,772.6c-2.1-0.9-3.3-3.3-2.6-5.6c0.1-0.2,0.1-0.3,0.1-0.5l0,0c0.1-1.3-0.9-2.4-2.2-2.4
	c-0.8,0-1.5,0.3-2,0.9l0,0c-0.1,0.1-0.2,0.3-0.3,0.5c-0.9,2.1-3.3,3.3-5.6,2.6c-0.2-0.1-0.3-0.1-0.5-0.1l0,0
	c-1.3-0.1-2.4,0.9-2.4,2.2c0,0.8,0.3,1.5,0.9,2l0,0c0.1,0.1,0.3,0.2,0.5,0.3c2.1,0.9,3.3,3.3,2.6,5.6c-0.1,0.2-0.1,0.3-0.1,0.5l0,0
	c-0.1,1.3,0.9,2.4,2.2,2.4c0.8,0,1.5-0.3,2-0.9l0,0c0.1-0.1,0.2-0.3,0.3-0.5c0.9-2.1,3.3-3.3,5.6-2.6c0.2,0.1,0.3,0.1,0.5,0.1l0,0
	c1.3,0.1,2.4-0.9,2.4-2.2c0-0.8-0.3-1.5-0.9-2l0,0C771.4,772.7,771.2,772.6,771.1,772.6z"/>
<path class="st3" d="M136.7,567.5c-2.1-0.9-3.3-3.3-2.6-5.6c0.1-0.2,0.1-0.3,0.1-0.5l0,0c0.1-1.3-0.9-2.4-2.2-2.4
	c-0.8,0-1.5,0.3-2,0.9l0,0c-0.1,0.1-0.2,0.3-0.3,0.5c-0.9,2.1-3.3,3.3-5.6,2.6c-0.2-0.1-0.3-0.1-0.5-0.1l0,0
	c-1.3-0.1-2.4,0.9-2.4,2.2c0,0.8,0.3,1.5,0.9,2l0,0c0.1,0.1,0.3,0.2,0.5,0.3c2.1,0.9,3.3,3.3,2.6,5.6c-0.1,0.2-0.1,0.3-0.1,0.5l0,0
	c-0.1,1.3,0.9,2.4,2.2,2.4c0.8,0,1.5-0.3,2-0.9l0,0c0.1-0.1,0.2-0.3,0.3-0.5c0.9-2.1,3.3-3.3,5.6-2.6c0.2,0.1,0.3,0.1,0.5,0.1l0,0
	c1.3,0.1,2.4-0.9,2.4-2.2c0-0.8-0.3-1.5-0.9-2l0,0C137,567.7,136.8,567.6,136.7,567.5z"/>
<path class="st3" d="M665.1,68.2c-2.1-0.9-3.3-3.3-2.6-5.6c0.1-0.2,0.1-0.3,0.1-0.5l0,0c0.1-1.3-0.9-2.4-2.2-2.4
	c-0.8,0-1.5,0.3-2,0.9l0,0c-0.1,0.1-0.2,0.3-0.3,0.4c-0.9,2.1-3.3,3.3-5.6,2.6c-0.2-0.1-0.3-0.1-0.5-0.1l0,0
	c-1.3-0.1-2.4,0.9-2.4,2.2c0,0.8,0.3,1.5,0.9,2l0,0c0.1,0.1,0.3,0.2,0.5,0.3c2.1,0.9,3.3,3.3,2.6,5.6c-0.1,0.2-0.1,0.3-0.1,0.5l0,0
	c-0.1,1.3,0.9,2.4,2.2,2.4c0.8,0,1.5-0.3,2-0.9l0,0c0.1-0.1,0.2-0.3,0.3-0.4c0.9-2.1,3.3-3.3,5.6-2.6c0.2,0.1,0.3,0.1,0.5,0.1l0,0
	c1.3,0.1,2.4-0.9,2.4-2.2c0-0.8-0.3-1.5-0.9-2l0,0C665.4,68.3,665.2,68.2,665.1,68.2z"/>
<circle class="st4" cx="812.6" cy="314.5" r="7.5"/>
<circle class="st4" cx="230.7" cy="746.7" r="7.5"/>
<circle class="st4" cx="735.3" cy="477.2" r="7.5"/>
<circle class="st2" cx="87.1" cy="96.3" r="7.5"/>
<circle class="st5" cx="7.5" cy="301.8" r="7.5"/>
<g>
	<path class="st6" d="M724,390.4c0,100.7-47.4,190.3-121.1,247.7c-53.2,41.5-120.1,66.2-192.8,66.2c-93.1,0-176.8-40.6-234.2-105.1
		l-0.1,0.1c-49.5-55.5-79.6-128.7-79.6-208.9c0-173.3,140.5-313.9,313.9-313.9S724,217.1,724,390.4z"/>
	<path class="st7" d="M307.7,135.6h-11.8c-1.5,0-2.9,0.3-4.3,0.8c-6.9,2.2-12.1,9.7-12.1,18.5v8.1v20.9v10.9c0,2,0.3,3.9,0.8,5.7
		c2.1,7.8,8.2,13.6,15.6,13.6h11.8c9.1,0,16.4-8.6,16.4-19.3v-10.9V163v-8.1C324.1,144.3,316.7,135.6,307.7,135.6z M540.7,135.6
		h-11.8c-9.1,0-16.4,8.6-16.4,19.3v8.1v20.9v10.9c0,10.7,7.3,19.3,16.4,19.3h11.8c9.1,0,16.4-8.6,16.4-19.3v-10.9V163v-8.1
		C557.1,144.3,549.8,135.6,540.7,135.6z M601.2,183.9h-29.3v10.9c0,18.8-14,34.1-31.2,34.1h-11.8c-17.2,0-31.2-15.3-31.2-34.1v-10.9
		H338.8v10.9c0,18.8-14,34.1-31.2,34.1h-11.8c-17.2,0-31.2-15.3-31.2-34.1v-10.9h-25.5c-16.3,0-29.5,12.4-29.5,27.6v367.9
		c0,15.3,13.2,27.6,29.5,27.6h362c16.3,0,29.5-12.3,29.5-27.6V211.6C630.6,196.3,617.5,183.9,601.2,183.9z M592,566.5l-344.8-0.1
		V269.8H592V566.5z"/>
	<g>
		<path class="st8" d="M254,584.4c-11.6,0-21.1-8.7-21.1-19.5V247.6c0-10.8,9.5-19.5,21.1-19.5h17.7v5.1c0,18.5,14,33.7,31.2,33.7
			h10.2c17.2,0,31.2-15.1,31.2-33.7v-5.1h128.4v5.1c0,18.5,14,33.7,31.2,33.7h10.2c17.2,0,31.2-15.1,31.2-33.7v-5.1h21
			c5.7,0,11,2.1,15,5.8c3.9,3.7,6,8.5,6,13.7V565c0,10.8-9.5,19.5-21.1,19.5L254,584.4L254,584.4z M256.6,558l306.1,0.1V293.5H256.6
			V558z M504,245.4c-5.4,0-9.8-5.5-9.8-12.3v-34.4c0-6.8,4.4-12.3,9.8-12.3h10.2c5.4,0,9.8,5.5,9.8,12.3v34.4
			c0,6.8-4.4,12.3-9.8,12.3L504,245.4L504,245.4z M302.9,245.4c-4.2,0-7.9-3.5-9.2-8.5c-0.3-1.5-0.6-2.7-0.6-3.9v-34.4
			c0-5.6,3-10.4,7.4-11.9c0.9-0.3,1.7-0.4,2.4-0.4h10.2c5.4,0,9.8,5.5,9.8,12.3V233c0,6.8-4.4,12.3-9.8,12.3L302.9,245.4
			L302.9,245.4z"/>
		<path class="st8" d="M471.5,468.3l-36.1,17.9c-1.3-5.3-5.3-9.9-10.9-11.6l-16.7-5c-12.1-3.6-27.9-6.5-43.7,2.6
			c-1,0.6-1.9,1.2-2.7,1.7c-3,1.9-4.8,3.1-10.1,3.1c-1.7-4.2-5.8-7.1-10.5-7.1h-17.1c-6.3,0-11.3,5.1-11.3,11.3v39.8
			c0,6.3,5.1,11.3,11.3,11.3h17.1c6,0,10.9-4.7,11.3-10.6c7.1,0.1,11.7,0.6,21.4,3.5c5.3,1.6,27.9,8.1,29.7,8.6
			c5.7,1.7,10.5,3,15.5,3c5.6,0,11.5-1.8,19.3-6.9c0,0,0.1,0,0.1-0.1l49.7-35.4c7.1-5,9.1-14.1,4.8-21.1
			C488.2,466.7,479.4,464.5,471.5,468.3L471.5,468.3z M482.7,487.7L433,523c-11.3,7.5-16,6.1-27.6,2.8c-1.7-0.5-24.3-7.1-29.6-8.6
			c-10.3-3-15.4-3.7-23.8-3.8v-27.8c7.2-0.2,10.6-2.4,13.8-4.5c0.7-0.5,1.5-1,2.3-1.4c10.3-5.9,21.4-6.5,37.1-1.8l16.7,5
			c3.9,1.1,6.1,5.2,5,9.1c0,0,0,0,0,0c-1.1,3.9-5.2,6.1-9.1,4.9l-23.9-6.9c-2.3-0.7-4.6,0.6-5.3,2.9c-0.7,2.3,0.6,4.6,2.9,5.3
			l23.9,6.9c7.7,2.2,15.8-1.7,18.9-8.9l40.8-20.2c3.3-1.6,7.7-1.4,9.9,2.1C487.1,481.1,486.1,485.3,482.7,487.7L482.7,487.7z
			 M398.2,416.8l17.6,17c0.8,0.8,1.9,1.2,2.9,1.2s2.1-0.4,2.9-1.2l17.6-17c0,0,0.1-0.1,0.1-0.1c6.4-6.6,6.4-17.5,0-24.1
			c-5.3-5.5-14.3-5.7-20.6-0.6c-6.3-5.1-15.3-4.9-20.6,0.6c-6.4,6.6-6.4,17.5,0,24.1C398.1,416.8,398.1,416.8,398.2,416.8
			L398.2,416.8z M323.4,415.9h23c2.3,0,4.2-1.9,4.2-4.2s-1.9-4.2-4.2-4.2h-23c-2.3,0-4.2,1.9-4.2,4.2S321.1,415.9,323.4,415.9z
			 M324.6,387.2l19.9,9.7c0.6,0.3,1.2,0.4,1.9,0.4c1.6,0,3.1-0.9,3.8-2.4c1-2.1,0.2-4.7-2-5.7l-19.9-9.7c-2.1-1-4.7-0.2-5.7,2
			C321.6,383.7,322.5,386.2,324.6,387.2z M344.6,426.3l-19.9,9.7c-2.1,1-3,3.6-2,5.7c0.7,1.5,2.2,2.4,3.8,2.4c0.6,0,1.3-0.1,1.9-0.4
			l19.9-9.7c2.1-1,3-3.6,2-5.7C349.2,426.2,346.7,425.3,344.6,426.3L344.6,426.3z M514,407.4h-23c-2.3,0-4.2,1.9-4.2,4.2
			s1.9,4.2,4.2,4.2h23c2.3,0,4.2-1.9,4.2-4.2S516.3,407.4,514,407.4z M491,397.4c0.6,0,1.3-0.1,1.9-0.4l19.9-9.7c2.1-1,3-3.6,2-5.7
			c-1-2.1-3.6-3-5.7-2l-19.9,9.7c-2.1,1-3,3.6-2,5.7C487.9,396.5,489.4,397.4,491,397.4L491,397.4z M512.8,436l-19.9-9.7
			c-2.1-1-4.7-0.2-5.7,2c-1,2.1-0.2,4.7,2,5.7l19.9,9.7c0.6,0.3,1.2,0.4,1.9,0.4c1.6,0,3.1-0.9,3.8-2.4
			C515.7,439.6,514.9,437.1,512.8,436L512.8,436z M365,378v62.1c0,8,6.5,14.6,14.6,14.6h78.2c8,0,14.6-6.5,14.6-14.6V378
			c6.4-1.2,11.3-6.8,11.3-13.6v-6c0-7.6-6.2-13.8-13.8-13.8h-8.8c1-3.8,0.7-7.8-0.9-11.8c-2.9-7.1-9.5-12.4-16.4-13.2
			c-6.3-0.7-12,2.3-16.1,8.3l-9.1,13.3l-9.1-13.3c-4.1-6-9.8-9-16.1-8.3c-6.9,0.7-13.5,6-16.4,13.2c-1.6,4-1.9,8-0.9,11.8h-8.8
			c-7.6,0-13.8,6.2-13.8,13.8v6C353.7,371.2,358.6,376.8,365,378L365,378z M434.8,332.7c2.3-3.4,5.1-5,8.2-4.6
			c3.8,0.4,7.7,3.7,9.4,7.9c0.7,1.8,1.6,5.2-0.4,8.6h-25.3L434.8,332.7z M385,336c1.7-4.2,5.6-7.5,9.4-7.9c3.1-0.3,5.8,1.2,8.2,4.6
			l8.1,11.9h-25.3C383.5,341.2,384.3,337.9,385,336z M362.2,358.4c0-2.9,2.4-5.3,5.3-5.3h102.4c2.9,0,5.3,2.4,5.3,5.3v6
			c0,2.9-2.4,5.3-5.3,5.3h-51.2c-2.3,0-4.2,1.9-4.2,4.2s1.9,4.2,4.2,4.2h45.2v61.9c0,3.4-2.7,6.1-6.1,6.1h-78.2
			c-3.4,0-6.1-2.7-6.1-6.1v-61.9h6.4c2.3,0,4.2-1.9,4.2-4.2s-1.9-4.2-4.2-4.2h-12.4c-2.9,0-5.3-2.4-5.3-5.3L362.2,358.4L362.2,358.4
			z M399,378.2c2.3,0,4.2-1.9,4.2-4.2s-1.9-4.2-4.2-4.2h0c-2.3,0-4.2,1.9-4.2,4.2C394.7,376.3,396.6,378.2,399,378.2z"/>
	</g>
</g>
</svg>
