<?xml version="1.0" encoding="utf-8"?>
<!-- Generator: Adobe Illustrator 25.1.0, SVG Export Plug-In . SVG Version: 6.00 Build 0)  -->
<svg version="1.1" id="layer" xmlns="http://www.w3.org/2000/svg" xmlns:xlink="http://www.w3.org/1999/xlink" x="0px" y="0px"
	 viewBox="0 0 820.2 780.8" style="enable-background:new 0 0 820.2 780.8;" xml:space="preserve">
<style type="text/css">
	.st0{opacity:0.5;}
	.st1{fill:#47E6B1;}
	.st2{opacity:0.5;fill:#4D8AF0;enable-background:new    ;}
	.st3{opacity:0.5;fill:#FDD835;enable-background:new    ;}
	.st4{opacity:0.5;fill:#F55F44;enable-background:new    ;}
	.st5{opacity:0.5;fill:#47E6B1;enable-background:new    ;}
	.st6{opacity:0.4;fill:#D4D4D4;enable-background:new    ;}
	.st7{display:none;}
	.st8{fill:#FFFFFF;}
</style>
<g class="st0">
	<rect x="15.3" y="737" class="st1" width="3.8" height="21.3"/>
	<rect x="6.5" y="745.8" class="st1" width="21.3" height="3.8"/>
</g>
<g class="st0">
	<rect x="451.5" class="st1" width="3.8" height="21.3"/>
	<rect x="442.7" y="8.8" class="st1" width="21.3" height="3.8"/>
</g>
<path class="st2" d="M771.1,772.6c-2.1-0.9-3.3-3.3-2.6-5.6c0.1-0.2,0.1-0.3,0.1-0.5l0,0c0.1-1.3-0.9-2.4-2.2-2.4
	c-0.8,0-1.5,0.3-2,0.9l0,0c-0.1,0.1-0.2,0.3-0.3,0.5c-0.9,2.1-3.3,3.3-5.6,2.6c-0.2-0.1-0.3-0.1-0.5-0.1l0,0
	c-1.3-0.1-2.4,0.9-2.4,2.2c0,0.8,0.3,1.5,0.9,2l0,0c0.1,0.1,0.3,0.2,0.5,0.3c2.1,0.9,3.3,3.3,2.6,5.6c-0.1,0.2-0.1,0.3-0.1,0.5l0,0
	c-0.1,1.3,0.9,2.4,2.2,2.4c0.8,0,1.5-0.3,2-0.9l0,0c0.1-0.1,0.2-0.3,0.3-0.5c0.9-2.1,3.3-3.3,5.6-2.6c0.2,0.1,0.3,0.1,0.5,0.1l0,0
	c1.3,0.1,2.4-0.9,2.4-2.2c0-0.8-0.3-1.5-0.9-2l0,0C771.4,772.7,771.2,772.6,771.1,772.6z"/>
<path class="st3" d="M136.7,567.5c-2.1-0.9-3.3-3.3-2.6-5.6c0.1-0.2,0.1-0.3,0.1-0.5l0,0c0.1-1.3-0.9-2.4-2.2-2.4
	c-0.8,0-1.5,0.3-2,0.9l0,0c-0.1,0.1-0.2,0.3-0.3,0.5c-0.9,2.1-3.3,3.3-5.6,2.6c-0.2-0.1-0.3-0.1-0.5-0.1l0,0
	c-1.3-0.1-2.4,0.9-2.4,2.2c0,0.8,0.3,1.5,0.9,2l0,0c0.1,0.1,0.3,0.2,0.5,0.3c2.1,0.9,3.3,3.3,2.6,5.6c-0.1,0.2-0.1,0.3-0.1,0.5l0,0
	c-0.1,1.3,0.9,2.4,2.2,2.4c0.8,0,1.5-0.3,2-0.9l0,0c0.1-0.1,0.2-0.3,0.3-0.5c0.9-2.1,3.3-3.3,5.6-2.6c0.2,0.1,0.3,0.1,0.5,0.1l0,0
	c1.3,0.1,2.4-0.9,2.4-2.2c0-0.8-0.3-1.5-0.9-2l0,0C137,567.7,136.8,567.6,136.7,567.5z"/>
<path class="st3" d="M665.1,68.2c-2.1-0.9-3.3-3.3-2.6-5.6c0.1-0.2,0.1-0.3,0.1-0.5l0,0c0.1-1.3-0.9-2.4-2.2-2.4
	c-0.8,0-1.5,0.3-2,0.9l0,0c-0.1,0.1-0.2,0.3-0.3,0.4c-0.9,2.1-3.3,3.3-5.6,2.6c-0.2-0.1-0.3-0.1-0.5-0.1l0,0
	c-1.3-0.1-2.4,0.9-2.4,2.2c0,0.8,0.3,1.5,0.9,2l0,0c0.1,0.1,0.3,0.2,0.5,0.3c2.1,0.9,3.3,3.3,2.6,5.6c-0.1,0.2-0.1,0.3-0.1,0.5l0,0
	c-0.1,1.3,0.9,2.4,2.2,2.4c0.8,0,1.5-0.3,2-0.9l0,0c0.1-0.1,0.2-0.3,0.3-0.4c0.9-2.1,3.3-3.3,5.6-2.6c0.2,0.1,0.3,0.1,0.5,0.1l0,0
	c1.3,0.1,2.4-0.9,2.4-2.2c0-0.8-0.3-1.5-0.9-2l0,0C665.4,68.3,665.2,68.2,665.1,68.2z"/>
<circle class="st4" cx="812.6" cy="314.5" r="7.5"/>
<circle class="st4" cx="230.7" cy="746.7" r="7.5"/>
<circle class="st4" cx="735.3" cy="477.2" r="7.5"/>
<circle class="st2" cx="87.1" cy="96.3" r="7.5"/>
<circle class="st5" cx="7.5" cy="301.8" r="7.5"/>
<g>
	<path class="st6" d="M724,390.4c0,100.7-47.4,190.3-121.1,247.7c-53.2,41.5-120.1,66.2-192.8,66.2c-93.1,0-176.8-40.6-234.2-105.1
		l-0.1,0.1c-49.5-55.5-79.6-128.7-79.6-208.9c0-173.3,140.5-313.9,313.9-313.9S724,217.1,724,390.4z"/>
	<path class="st7" d="M307.7,135.6h-11.8c-1.5,0-2.9,0.3-4.3,0.8c-6.9,2.2-12.1,9.7-12.1,18.5v8.1v20.9v10.9c0,2,0.3,3.9,0.8,5.7
		c2.1,7.8,8.2,13.6,15.6,13.6h11.8c9.1,0,16.4-8.6,16.4-19.3v-10.9V163v-8.1C324.1,144.3,316.7,135.6,307.7,135.6z M540.7,135.6
		h-11.8c-9.1,0-16.4,8.6-16.4,19.3v8.1v20.9v10.9c0,10.7,7.3,19.3,16.4,19.3h11.8c9.1,0,16.4-8.6,16.4-19.3v-10.9V163v-8.1
		C557.1,144.3,549.8,135.6,540.7,135.6z M601.2,183.9h-29.3v10.9c0,18.8-14,34.1-31.2,34.1h-11.8c-17.2,0-31.2-15.3-31.2-34.1v-10.9
		H338.8v10.9c0,18.8-14,34.1-31.2,34.1h-11.8c-17.2,0-31.2-15.3-31.2-34.1v-10.9h-25.5c-16.3,0-29.5,12.4-29.5,27.6v367.9
		c0,15.3,13.2,27.6,29.5,27.6h362c16.3,0,29.5-12.3,29.5-27.6V211.6C630.6,196.3,617.5,183.9,601.2,183.9z M592,566.5l-344.8-0.1
		V269.8H592V566.5z"/>
	<g>
		<path class="st8" d="M254,584.4c-11.6,0-21.1-8.7-21.1-19.5V247.6c0-10.8,9.5-19.5,21.1-19.5h17.7v5.1c0,18.5,14,33.7,31.2,33.7
			h10.2c17.2,0,31.2-15.1,31.2-33.7v-5.1h128.4v5.1c0,18.5,14,33.7,31.2,33.7h10.2c17.2,0,31.2-15.1,31.2-33.7v-5.1h21
			c5.7,0,11,2.1,15,5.8c3.9,3.7,6,8.5,6,13.7V565c0,10.8-9.5,19.5-21.1,19.5L254,584.4L254,584.4z M256.6,558l306.1,0.1V293.5H256.6
			V558z M504,245.4c-5.4,0-9.8-5.5-9.8-12.3v-34.4c0-6.8,4.4-12.3,9.8-12.3h10.2c5.4,0,9.8,5.5,9.8,12.3v34.4
			c0,6.8-4.4,12.3-9.8,12.3L504,245.4L504,245.4z M302.9,245.4c-4.2,0-7.9-3.5-9.2-8.5c-0.3-1.5-0.6-2.7-0.6-3.9v-34.4
			c0-5.6,3-10.4,7.4-11.9c0.9-0.3,1.7-0.4,2.4-0.4h10.2c5.4,0,9.8,5.5,9.8,12.3V233c0,6.8-4.4,12.3-9.8,12.3L302.9,245.4
			L302.9,245.4z"/>
		<path class="st8" d="M313.4,342.3l13.4,23.5c0.5,0.8,1.2,1.4,2.1,1.6l12.5,3.1l42.9,42.9l4.7-4.7l-43.6-43.6
			c-0.4-0.4-1-0.7-1.6-0.9l-12-3l-11.4-20l9.8-9.8l20,11.4l3,12c0.1,0.6,0.5,1.1,0.9,1.6l43.6,43.6l4.7-4.7l-42.9-42.9l-3.1-12.5
			c-0.2-0.9-0.8-1.6-1.6-2.1l-23.5-13.4c-1.3-0.7-3-0.5-4,0.5L314,338.3C312.9,339.3,312.7,341,313.4,342.3z M452.7,389.9L379,463.6
			l-4.7-4.7l73.7-73.7L452.7,389.9z M366.1,466.2c-0.6-1-1.7-1.6-2.9-1.6h-20.1c-1.2,0-2.3,0.6-2.9,1.6L330.2,483
			c-0.6,1.1-0.6,2.4,0,3.5l10.1,16.8c0.6,1,1.7,1.6,2.9,1.6h20.1c1.2,0,2.3-0.6,2.9-1.6l10-16.8c0.6-1.1,0.6-2.4,0-3.5L366.1,466.2z
			 M361.4,498.1H345l-8-13.4l8-13.4h16.3l8,13.4L361.4,498.1z M473.8,404.3c22.1,0.1,40.1-17.8,40.2-39.9c0-3.4-0.4-6.7-1.2-10
			c-0.4-1.8-2.3-2.9-4.1-2.4c-0.6,0.1-1.1,0.5-1.6,0.9l-20.9,20.8l-16.5-5.5l-5.5-16.5l20.9-20.9c1.3-1.3,1.3-3.4,0-4.7
			c-0.4-0.4-1-0.7-1.6-0.9c-21.5-5.4-43.3,7.6-48.7,29c-0.8,3.3-1.2,6.6-1.2,10c0,2.6,0.3,5.3,0.8,7.9l-73.4,73.4
			c-2.6-0.5-5.2-0.8-7.8-0.8c-22.2,0-40.2,18-40.2,40.2c0,22.2,18,40.2,40.2,40.2c22.2,0,40.2-18,40.2-40.2c0-2.6-0.3-5.3-0.8-7.9
			l17.6-17.6l7.7,7.7c1.3,1.3,3.4,1.3,4.7,0l1.7-1.7c1.5-1.5,3.8-1.5,5.3,0c1.5,1.5,1.5,3.8,0,5.3c0,0,0,0,0,0l-1.7,1.7
			c-1.3,1.3-1.3,3.4,0,4.7l40,40c10.5,10.6,27.6,10.7,38.2,0.2c10.6-10.5,10.7-27.6,0.2-38.2c-0.1-0.1-0.1-0.1-0.2-0.2l-40-40
			c-1.3-1.3-3.4-1.3-4.7,0l-1.7,1.7c-1.5,1.5-3.8,1.5-5.3,0c-1.5-1.5-1.5-3.8,0-5.3c0,0,0,0,0,0l1.7-1.7c1.3-1.3,1.3-3.4,0-4.7
			l-7.7-7.7l17.6-17.6C468.5,404,471.2,404.3,473.8,404.3z M487,518.2c-2.4,0-4.8-0.4-7.1-1.3l26.2-26.2
			c3.9,10.5-1.4,22.2-11.9,26.2C491.9,517.8,489.4,518.2,487,518.2z M449,431.1c-3.7,4.4-3.1,11,1.3,14.7c3.9,3.3,9.6,3.3,13.4,0
			l37.6,37.6c0.4,0.4,0.8,0.8,1.2,1.3l-28.6,28.6c-0.4-0.4-0.9-0.7-1.3-1.2L435,474.6c3.7-4.4,3.1-11-1.3-14.7
			c-3.9-3.3-9.6-3.3-13.4,0l-5.4-5.4l28.8-28.8L449,431.1z M462.5,397.4l-76,76c-0.8,0.8-1.2,2-0.9,3.2c4.6,18.1-6.3,36.4-24.4,41
			c-18.1,4.6-36.4-6.3-41-24.4c-4.6-18.1,6.3-36.4,24.4-41c5.5-1.4,11.2-1.4,16.6,0c1.1,0.3,2.3-0.1,3.2-0.9l76-76
			c0.8-0.8,1.2-2,0.9-3.2c-4.6-17.8,6.2-36,24-40.6c3.4-0.9,6.9-1.2,10.3-1L458,348.3c-0.9,0.9-1.2,2.2-0.8,3.4l6.7,20.1
			c0.3,1,1.1,1.8,2.1,2.1l20.1,6.7c1.2,0.4,2.5,0.1,3.4-0.8l17.7-17.7c0,0.6,0.1,1.3,0.1,1.9c0.1,18.4-14.8,33.4-33.2,33.5
			c-2.8,0-5.7-0.3-8.4-1C464.6,396.3,463.4,396.6,462.5,397.4L462.5,397.4L462.5,397.4z M486.2,492.4l-4.7,4.7L448,463.6l4.7-4.7
			L486.2,492.4z"/>
	</g>
</g>
</svg>
