<?xml version="1.0" encoding="utf-8"?>
<!-- Generator: Adobe Illustrator 25.1.0, SVG Export Plug-In . SVG Version: 6.00 Build 0)  -->
<svg version="1.1" id="layer" xmlns="http://www.w3.org/2000/svg" xmlns:xlink="http://www.w3.org/1999/xlink" x="0px" y="0px"
	 viewBox="0 0 820.2 780.8" style="enable-background:new 0 0 820.2 780.8;" xml:space="preserve">
<style type="text/css">
	.st0{opacity:0.5;}
	.st1{fill:#47E6B1;}
	.st2{opacity:0.5;fill:#4D8AF0;enable-background:new    ;}
	.st3{opacity:0.5;fill:#FDD835;enable-background:new    ;}
	.st4{opacity:0.5;fill:#F55F44;enable-background:new    ;}
	.st5{opacity:0.5;fill:#47E6B1;enable-background:new    ;}
	.st6{opacity:0.4;fill:#D4D4D4;enable-background:new    ;}
	.st7{display:none;}
	.st8{fill:#FFFFFF;}
</style>
<g class="st0">
	<rect x="15.3" y="737" class="st1" width="3.8" height="21.3"/>
	<rect x="6.5" y="745.8" class="st1" width="21.3" height="3.8"/>
</g>
<g class="st0">
	<rect x="451.5" class="st1" width="3.8" height="21.3"/>
	<rect x="442.7" y="8.8" class="st1" width="21.3" height="3.8"/>
</g>
<path class="st2" d="M771.1,772.6c-2.1-0.9-3.3-3.3-2.6-5.6c0.1-0.2,0.1-0.3,0.1-0.5l0,0c0.1-1.3-0.9-2.4-2.2-2.4
	c-0.8,0-1.5,0.3-2,0.9l0,0c-0.1,0.1-0.2,0.3-0.3,0.5c-0.9,2.1-3.3,3.3-5.6,2.6c-0.2-0.1-0.3-0.1-0.5-0.1l0,0
	c-1.3-0.1-2.4,0.9-2.4,2.2c0,0.8,0.3,1.5,0.9,2l0,0c0.1,0.1,0.3,0.2,0.5,0.3c2.1,0.9,3.3,3.3,2.6,5.6c-0.1,0.2-0.1,0.3-0.1,0.5l0,0
	c-0.1,1.3,0.9,2.4,2.2,2.4c0.8,0,1.5-0.3,2-0.9l0,0c0.1-0.1,0.2-0.3,0.3-0.5c0.9-2.1,3.3-3.3,5.6-2.6c0.2,0.1,0.3,0.1,0.5,0.1l0,0
	c1.3,0.1,2.4-0.9,2.4-2.2c0-0.8-0.3-1.5-0.9-2l0,0C771.4,772.7,771.2,772.6,771.1,772.6z"/>
<path class="st3" d="M136.7,567.5c-2.1-0.9-3.3-3.3-2.6-5.6c0.1-0.2,0.1-0.3,0.1-0.5l0,0c0.1-1.3-0.9-2.4-2.2-2.4
	c-0.8,0-1.5,0.3-2,0.9l0,0c-0.1,0.1-0.2,0.3-0.3,0.5c-0.9,2.1-3.3,3.3-5.6,2.6c-0.2-0.1-0.3-0.1-0.5-0.1l0,0
	c-1.3-0.1-2.4,0.9-2.4,2.2c0,0.8,0.3,1.5,0.9,2l0,0c0.1,0.1,0.3,0.2,0.5,0.3c2.1,0.9,3.3,3.3,2.6,5.6c-0.1,0.2-0.1,0.3-0.1,0.5l0,0
	c-0.1,1.3,0.9,2.4,2.2,2.4c0.8,0,1.5-0.3,2-0.9l0,0c0.1-0.1,0.2-0.3,0.3-0.5c0.9-2.1,3.3-3.3,5.6-2.6c0.2,0.1,0.3,0.1,0.5,0.1l0,0
	c1.3,0.1,2.4-0.9,2.4-2.2c0-0.8-0.3-1.5-0.9-2l0,0C137,567.7,136.8,567.6,136.7,567.5z"/>
<path class="st3" d="M665.1,68.2c-2.1-0.9-3.3-3.3-2.6-5.6c0.1-0.2,0.1-0.3,0.1-0.5l0,0c0.1-1.3-0.9-2.4-2.2-2.4
	c-0.8,0-1.5,0.3-2,0.9l0,0c-0.1,0.1-0.2,0.3-0.3,0.4c-0.9,2.1-3.3,3.3-5.6,2.6c-0.2-0.1-0.3-0.1-0.5-0.1l0,0
	c-1.3-0.1-2.4,0.9-2.4,2.2c0,0.8,0.3,1.5,0.9,2l0,0c0.1,0.1,0.3,0.2,0.5,0.3c2.1,0.9,3.3,3.3,2.6,5.6c-0.1,0.2-0.1,0.3-0.1,0.5l0,0
	c-0.1,1.3,0.9,2.4,2.2,2.4c0.8,0,1.5-0.3,2-0.9l0,0c0.1-0.1,0.2-0.3,0.3-0.4c0.9-2.1,3.3-3.3,5.6-2.6c0.2,0.1,0.3,0.1,0.5,0.1l0,0
	c1.3,0.1,2.4-0.9,2.4-2.2c0-0.8-0.3-1.5-0.9-2l0,0C665.4,68.3,665.2,68.2,665.1,68.2z"/>
<circle class="st4" cx="812.6" cy="314.5" r="7.5"/>
<circle class="st4" cx="230.7" cy="746.7" r="7.5"/>
<circle class="st4" cx="735.3" cy="477.2" r="7.5"/>
<circle class="st2" cx="87.1" cy="96.3" r="7.5"/>
<circle class="st5" cx="7.5" cy="301.8" r="7.5"/>
<g>
	<path class="st6" d="M724,390.4c0,100.7-47.4,190.3-121.1,247.7c-53.2,41.5-120.1,66.2-192.8,66.2c-93.1,0-176.8-40.6-234.2-105.1
		l-0.1,0.1c-49.5-55.5-79.6-128.7-79.6-208.9c0-173.3,140.5-313.9,313.9-313.9S724,217.1,724,390.4z"/>
	<path class="st7" d="M307.7,135.6h-11.8c-1.5,0-2.9,0.3-4.3,0.8c-6.9,2.2-12.1,9.7-12.1,18.5v8.1v20.9v10.9c0,2,0.3,3.9,0.8,5.7
		c2.1,7.8,8.2,13.6,15.6,13.6h11.8c9.1,0,16.4-8.6,16.4-19.3v-10.9V163v-8.1C324.1,144.3,316.7,135.6,307.7,135.6z M540.7,135.6
		h-11.8c-9.1,0-16.4,8.6-16.4,19.3v8.1v20.9v10.9c0,10.7,7.3,19.3,16.4,19.3h11.8c9.1,0,16.4-8.6,16.4-19.3v-10.9V163v-8.1
		C557.1,144.3,549.8,135.6,540.7,135.6z M601.2,183.9h-29.3v10.9c0,18.8-14,34.1-31.2,34.1h-11.8c-17.2,0-31.2-15.3-31.2-34.1v-10.9
		H338.8v10.9c0,18.8-14,34.1-31.2,34.1h-11.8c-17.2,0-31.2-15.3-31.2-34.1v-10.9h-25.5c-16.3,0-29.5,12.4-29.5,27.6v367.9
		c0,15.3,13.2,27.6,29.5,27.6h362c16.3,0,29.5-12.3,29.5-27.6V211.6C630.6,196.3,617.5,183.9,601.2,183.9z M592,566.5l-344.8-0.1
		V269.8H592V566.5z"/>
	<g>
		<path class="st8" d="M254,584.4c-11.6,0-21.1-8.7-21.1-19.5V247.6c0-10.8,9.5-19.5,21.1-19.5h17.7v5.1c0,18.5,14,33.7,31.2,33.7
			h10.2c17.2,0,31.2-15.1,31.2-33.7v-5.1h128.4v5.1c0,18.5,14,33.7,31.2,33.7h10.2c17.2,0,31.2-15.1,31.2-33.7v-5.1h21
			c5.7,0,11,2.1,15,5.8c3.9,3.7,6,8.5,6,13.7V565c0,10.8-9.5,19.5-21.1,19.5L254,584.4L254,584.4z M256.6,558l306.1,0.1V293.5H256.6
			V558z M504,245.4c-5.4,0-9.8-5.5-9.8-12.3v-34.4c0-6.8,4.4-12.3,9.8-12.3h10.2c5.4,0,9.8,5.5,9.8,12.3v34.4
			c0,6.8-4.4,12.3-9.8,12.3L504,245.4L504,245.4z M302.9,245.4c-4.2,0-7.9-3.5-9.2-8.5c-0.3-1.5-0.6-2.7-0.6-3.9v-34.4
			c0-5.6,3-10.4,7.4-11.9c0.9-0.3,1.7-0.4,2.4-0.4h10.2c5.4,0,9.8,5.5,9.8,12.3V233c0,6.8-4.4,12.3-9.8,12.3L302.9,245.4
			L302.9,245.4z"/>
		<path id="path32545" class="st8" d="M410.6,323.6c-13.8,0-25.1,11.3-25.1,25.1c0,12.6,9.4,23.1,21.5,24.8v14.8
			c-11.2,1-21.1,6.7-27.6,15.2l-24.8-15.8c1.4-3.1,2.2-6.6,2.2-10.3c0-13.8-11.3-25.1-25.1-25.1s-25.1,11.3-25.1,25.1
			s11.3,25.1,25.1,25.1c7.6,0,14.4-3.4,19-8.8l24.8,15.8c-2.8,5.4-4.4,11.6-4.4,18.1c0,8.6,2.7,16.5,7.4,22.9l-30.4,26.3
			c-4.4-3.8-10.2-6.2-16.4-6.2c-13.8,0-25.1,11.3-25.1,25.1s11.3,25.1,25.1,25.1s25.1-11.3,25.1-25.1c0-5-1.5-9.6-4-13.5l30.4-26.3
			c7.1,6.9,16.7,11.1,27.4,11.1c9.9,0,19-3.7,25.9-9.8l32.5,31.1c-2.9,4.1-4.7,9.1-4.7,14.5c0,13.8,11.3,25.1,25.1,25.1
			s25.1-11.3,25.1-25.1s-11.3-25.1-25.1-25.1c-5.8,0-11.2,2-15.5,5.4l-32.5-31.1c5.4-6.7,8.6-15.3,8.6-24.5c0-1.3-0.1-2.5-0.2-3.8
			l15.8-2.6c3.3,9.9,12.8,17.2,23.8,17.2c13.8,0,25.1-11.3,25.1-25.1s-11.3-25.1-25.1-25.1s-25.1,11.3-25.1,25.1c0,0.3,0,0.6,0,0.9
			l-15.9,2.6c-4.4-15.4-17.9-27-34.3-28.5v-14.8c12.1-1.8,21.5-12.2,21.5-24.8C435.7,334.9,424.4,323.6,410.6,323.6z M410.6,330.8
			c9.9,0,17.9,8,17.9,17.9c0,9.9-8,17.9-17.9,17.9s-17.9-8-17.9-17.9C392.7,338.8,400.7,330.8,410.6,330.8z M410.6,336.1
			c-6.9,0-12.6,5.6-12.6,12.6c0,1,0.8,1.8,1.8,1.8c1,0,1.8-0.8,1.8-1.8c0,0,0,0,0-0.1c0-5,4-9,9-9c1,0,1.8-0.8,1.8-1.8
			C412.4,337,411.6,336.2,410.6,336.1C410.6,336.1,410.6,336.1,410.6,336.1z M331.7,359.5c9.9,0,17.9,8,17.9,17.9
			c0,9.9-8,17.9-17.9,17.9c-9.9,0-17.9-8-17.9-17.9C313.8,367.4,321.8,359.5,331.7,359.5z M331.7,364.8c-6.9,0-12.6,5.6-12.6,12.6
			c0,1,0.8,1.8,1.8,1.8c1,0,1.8-0.8,1.8-1.8c0,0,0,0,0-0.1c0-5,4-9,9-9c1,0,1.8-0.8,1.8-1.8C333.5,365.7,332.7,364.8,331.7,364.8
			C331.7,364.8,331.7,364.8,331.7,364.8z M410.6,395.3c17.9,0,32.3,14.4,32.3,32.3s-14.4,32.3-32.3,32.3s-32.3-14.4-32.3-32.3
			S392.7,395.3,410.6,395.3z M489.5,395.3c9.9,0,17.9,8,17.9,17.9c0,9.9-8,17.9-17.9,17.9c-9.9,0-17.9-8-17.9-17.9
			C471.6,403.3,479.6,395.3,489.5,395.3z M489.5,400.7c-6.9,0-12.6,5.6-12.6,12.6c0,1,0.8,1.8,1.8,1.8c1,0,1.8-0.8,1.8-1.8
			c0,0,0,0,0-0.1c0-5,4-9,9-9c1,0,1.8-0.8,1.8-1.8C491.3,401.5,490.5,400.7,489.5,400.7C489.5,400.7,489.5,400.7,489.5,400.7z
			 M383.2,429.2c-1,0-1.8,0.9-1.7,1.9c0,0.1,0,0.2,0.1,0.4c3.2,13.6,14.4,23.9,28.2,25.8c1,0.2,1.9-0.5,2.1-1.5
			c0.2-1-0.5-1.9-1.5-2.1c0,0,0,0-0.1,0c-12.4-1.7-22.4-10.9-25.2-23.1C384.9,429.7,384.1,429.1,383.2,429.2z M331.7,477.8
			c9.9,0,17.9,8,17.9,17.9c0,9.9-8,17.9-17.9,17.9c-9.9,0-17.9-8-17.9-17.9C313.8,485.8,321.8,477.8,331.7,477.8z M331.7,483.2
			c-6.9,0-12.6,5.6-12.6,12.6c0,1,0.8,1.8,1.8,1.8c1,0,1.8-0.8,1.8-1.8c0,0,0,0,0-0.1c0-5,4-9,9-9c1,0,1.8-0.8,1.8-1.8
			C333.5,484,332.7,483.2,331.7,483.2C331.7,483.2,331.7,483.2,331.7,483.2z M489.5,485c9.9,0,17.9,8,17.9,17.9
			c0,9.9-8,17.9-17.9,17.9c-9.9,0-17.9-8-17.9-17.9C471.6,493,479.6,485,489.5,485z M489.5,490.4c-6.9,0-12.6,5.6-12.6,12.6
			c0,1,0.8,1.8,1.8,1.8c1,0,1.8-0.8,1.8-1.8c0,0,0,0,0-0.1c0-5,4-9,9-9c1,0,1.8-0.8,1.8-1.8C491.3,491.2,490.5,490.4,489.5,490.4
			C489.5,490.4,489.5,490.4,489.5,490.4z"/>
	</g>
</g>
</svg>
