<?xml version="1.0" encoding="utf-8"?>
<!-- Generator: Adobe Illustrator 25.0.1, SVG Export Plug-In . SVG Version: 6.00 Build 0)  -->
<svg version="1.1" id="f20e0c25-d928-42cc-98d1-13cc230663ea"
	 xmlns="http://www.w3.org/2000/svg" xmlns:xlink="http://www.w3.org/1999/xlink" x="0px" y="0px" viewBox="0 0 820.2 780.8"
	 style="enable-background:new 0 0 820.2 780.8;" xml:space="preserve">
<style type="text/css">
	.st0{opacity:0.5;}
	.st1{fill:#47E6B1;}
	.st2{opacity:0.5;fill:#4D8AF0;enable-background:new    ;}
	.st3{opacity:0.5;fill:#FDD835;enable-background:new    ;}
	.st4{opacity:0.5;fill:#F55F44;enable-background:new    ;}
	.st5{opacity:0.5;fill:#47E6B1;enable-background:new    ;}
	.st6{opacity:0.4;fill:#D4D4D4;enable-background:new    ;}
	.st7{display:none;}
	.st8{fill:#FFFFFF;}
</style>
<g class="st0">
	<rect x="15.3" y="737" class="st1" width="3.8" height="21.3"/>
	<rect x="6.5" y="745.8" class="st1" width="21.3" height="3.8"/>
</g>
<g class="st0">
	<rect x="451.5" class="st1" width="3.8" height="21.3"/>
	<rect x="442.7" y="8.8" class="st1" width="21.3" height="3.8"/>
</g>
<path class="st2" d="M771.1,772.6c-2.1-0.9-3.3-3.3-2.6-5.6c0.1-0.2,0.1-0.3,0.1-0.5l0,0c0.1-1.3-0.9-2.4-2.2-2.4
	c-0.8,0-1.5,0.3-2,0.9l0,0c-0.1,0.1-0.2,0.3-0.3,0.5c-0.9,2.1-3.3,3.3-5.6,2.6c-0.2-0.1-0.3-0.1-0.5-0.1l0,0
	c-1.3-0.1-2.4,0.9-2.4,2.2c0,0.8,0.3,1.5,0.9,2l0,0c0.1,0.1,0.3,0.2,0.5,0.3c2.1,0.9,3.3,3.3,2.6,5.6c-0.1,0.2-0.1,0.3-0.1,0.5l0,0
	c-0.1,1.3,0.9,2.4,2.2,2.4c0.8,0,1.5-0.3,2-0.9l0,0c0.1-0.1,0.2-0.3,0.3-0.5c0.9-2.1,3.3-3.3,5.6-2.6c0.2,0.1,0.3,0.1,0.5,0.1l0,0
	c1.3,0.1,2.4-0.9,2.4-2.2c0-0.8-0.3-1.5-0.9-2l0,0C771.4,772.7,771.2,772.6,771.1,772.6z"/>
<path class="st3" d="M136.7,567.5c-2.1-0.9-3.3-3.3-2.6-5.6c0.1-0.2,0.1-0.3,0.1-0.5l0,0c0.1-1.3-0.9-2.4-2.2-2.4
	c-0.8,0-1.5,0.3-2,0.9l0,0c-0.1,0.1-0.2,0.3-0.3,0.5c-0.9,2.1-3.3,3.3-5.6,2.6c-0.2-0.1-0.3-0.1-0.5-0.1l0,0
	c-1.3-0.1-2.4,0.9-2.4,2.2c0,0.8,0.3,1.5,0.9,2l0,0c0.1,0.1,0.3,0.2,0.5,0.3c2.1,0.9,3.3,3.3,2.6,5.6c-0.1,0.2-0.1,0.3-0.1,0.5l0,0
	c-0.1,1.3,0.9,2.4,2.2,2.4c0.8,0,1.5-0.3,2-0.9l0,0c0.1-0.1,0.2-0.3,0.3-0.5c0.9-2.1,3.3-3.3,5.6-2.6c0.2,0.1,0.3,0.1,0.5,0.1l0,0
	c1.3,0.1,2.4-0.9,2.4-2.2c0-0.8-0.3-1.5-0.9-2l0,0C137,567.7,136.8,567.6,136.7,567.5z"/>
<path class="st3" d="M665.1,68.2c-2.1-0.9-3.3-3.3-2.6-5.6c0.1-0.2,0.1-0.3,0.1-0.5l0,0c0.1-1.3-0.9-2.4-2.2-2.4
	c-0.8,0-1.5,0.3-2,0.9l0,0c-0.1,0.1-0.2,0.3-0.3,0.4c-0.9,2.1-3.3,3.3-5.6,2.6c-0.2-0.1-0.3-0.1-0.5-0.1l0,0
	c-1.3-0.1-2.4,0.9-2.4,2.2c0,0.8,0.3,1.5,0.9,2l0,0c0.1,0.1,0.3,0.2,0.5,0.3c2.1,0.9,3.3,3.3,2.6,5.6c-0.1,0.2-0.1,0.3-0.1,0.5l0,0
	c-0.1,1.3,0.9,2.4,2.2,2.4c0.8,0,1.5-0.3,2-0.9l0,0c0.1-0.1,0.2-0.3,0.3-0.4c0.9-2.1,3.3-3.3,5.6-2.6c0.2,0.1,0.3,0.1,0.5,0.1l0,0
	c1.3,0.1,2.4-0.9,2.4-2.2c0-0.8-0.3-1.5-0.9-2l0,0C665.4,68.3,665.2,68.2,665.1,68.2z"/>
<circle class="st4" cx="812.6" cy="314.5" r="7.5"/>
<circle class="st4" cx="230.7" cy="746.7" r="7.5"/>
<circle class="st4" cx="735.3" cy="477.2" r="7.5"/>
<circle class="st2" cx="87.1" cy="96.3" r="7.5"/>
<circle class="st5" cx="7.5" cy="301.8" r="7.5"/>
<g>
	<path class="st6" d="M724,390.4c0,100.7-47.4,190.3-121.1,247.7c-53.2,41.5-120.1,66.2-192.8,66.2c-93.1,0-176.8-40.6-234.2-105.1
		l-0.1,0.1c-49.5-55.5-79.6-128.7-79.6-208.9c0-173.3,140.5-313.9,313.9-313.9S724,217.1,724,390.4z"/>
	<path class="st7" d="M307.7,135.6h-11.8c-1.5,0-2.9,0.3-4.3,0.8c-6.9,2.2-12.1,9.7-12.1,18.5v8.1v20.9v10.9c0,2,0.3,3.9,0.8,5.7
		c2.1,7.8,8.2,13.6,15.6,13.6h11.8c9.1,0,16.4-8.6,16.4-19.3v-10.9V163v-8.1C324.1,144.3,316.7,135.6,307.7,135.6z M540.7,135.6
		h-11.8c-9.1,0-16.4,8.6-16.4,19.3v8.1v20.9v10.9c0,10.7,7.3,19.3,16.4,19.3h11.8c9.1,0,16.4-8.6,16.4-19.3v-10.9V163v-8.1
		C557.1,144.3,549.8,135.6,540.7,135.6z M601.2,183.9h-29.3v10.9c0,18.8-14,34.1-31.2,34.1h-11.8c-17.2,0-31.2-15.3-31.2-34.1v-10.9
		H338.8v10.9c0,18.8-14,34.1-31.2,34.1h-11.8c-17.2,0-31.2-15.3-31.2-34.1v-10.9h-25.5c-16.3,0-29.5,12.4-29.5,27.6v367.9
		c0,15.3,13.2,27.6,29.5,27.6h362c16.3,0,29.5-12.3,29.5-27.6V211.6C630.6,196.3,617.5,183.9,601.2,183.9z M592,566.5l-344.8-0.1
		V269.8H592V566.5z"/>
	<g>
		<path class="st8" d="M254,584.4c-11.6,0-21.1-8.7-21.1-19.5V247.6c0-10.8,9.5-19.5,21.1-19.5h17.7v5.1c0,18.5,14,33.7,31.2,33.7
			h10.2c17.2,0,31.2-15.1,31.2-33.7v-5.1h128.4v5.1c0,18.5,14,33.7,31.2,33.7h10.2c17.2,0,31.2-15.1,31.2-33.7v-5.1h21
			c5.7,0,11,2.1,15,5.8c3.9,3.7,6,8.5,6,13.7V565c0,10.8-9.5,19.5-21.1,19.5L254,584.4L254,584.4z M256.6,558l306.1,0.1V293.5H256.6
			V558z M504,245.4c-5.4,0-9.8-5.5-9.8-12.3v-34.4c0-6.8,4.4-12.3,9.8-12.3h10.2c5.4,0,9.8,5.5,9.8,12.3v34.4
			c0,6.8-4.4,12.3-9.8,12.3L504,245.4L504,245.4z M302.9,245.4c-4.2,0-7.9-3.5-9.2-8.5c-0.3-1.5-0.6-2.7-0.6-3.9v-34.4
			c0-5.6,3-10.4,7.4-11.9c0.9-0.3,1.7-0.4,2.4-0.4h10.2c5.4,0,9.8,5.5,9.8,12.3V233c0,6.8-4.4,12.3-9.8,12.3L302.9,245.4
			L302.9,245.4z"/>
		<path class="st8" d="M495.2,467.3c-2.9-1.6-6.6-0.5-8.2,2.4c-1.6,2.9-0.5,6.6,2.4,8.2c7.2,4,11.3,8.3,11.3,12
			c0,4.5-6.4,11.5-24.3,17.6c-17.7,6-41.4,9.3-66.7,9.3c-25.3,0-49-3.3-66.7-9.3c-17.9-6.1-24.3-13.1-24.3-17.6
			c0-3.7,4.1-8.1,11.3-12c2.9-1.6,4-5.3,2.4-8.2c-1.6-2.9-5.3-4-8.2-2.4c-8,4.4-17.6,11.9-17.6,22.6c0,8.2,5.6,19.9,32.5,29
			c18.9,6.4,44,10,70.6,10c26.6,0,51.7-3.5,70.6-10c26.9-9.1,32.5-20.8,32.5-29C512.8,479.2,503.2,471.7,495.2,467.3z M364,498.8
			c12.3,3.5,28.5,5.4,45.6,5.4c17.2,0,33.4-1.9,45.6-5.4c15-4.2,22.6-10.4,22.6-18.2c0-7.9-7.6-14-22.6-18.2
			c-3.3-0.9-7-1.8-10.8-2.5c-2.1,3.6-4.3,7.3-6.6,11.2c4.3,0.6,8.3,1.4,11.9,2.4c11,2.8,15.1,6,15.9,7.2c-0.8,1.2-4.9,4.4-15.9,7.2
			c-10.5,2.7-23.9,4.2-38.1,4.3c-0.7,0.1-1.4,0.1-2.1,0.1c-0.7,0-1.4,0-2.1-0.1c-14.2-0.1-27.6-1.7-38.1-4.3
			c-11-2.8-15.1-6-15.9-7.2c0.8-1.2,4.9-4.4,15.9-7.2c3.6-0.9,7.6-1.7,11.9-2.4c-2.3-3.8-4.5-7.5-6.6-11.2
			c-3.9,0.7-7.5,1.5-10.8,2.5c-15,4.2-22.6,10.4-22.6,18.2S349,494.5,364,498.8z M409.7,480c5.4,0,10.3-2.7,13.1-7.3
			c19.7-32.2,43.1-74.6,43.1-93.9c0-31-25.2-56.2-56.2-56.2s-56.2,25.2-56.2,56.2c0,19.3,23.4,61.7,43.1,93.9
			C399.4,477.3,404.3,480,409.7,480z M387.1,375c0-12.5,10.1-22.6,22.6-22.6c12.5,0,22.6,10.1,22.6,22.6c0,12.5-10.1,22.6-22.6,22.6
			C397.2,397.6,387.1,387.4,387.1,375z"/>
	</g>
</g>
</svg>
