<?xml version="1.0" encoding="utf-8"?>
<!-- Generator: Adobe Illustrator 25.1.0, SVG Export Plug-In . SVG Version: 6.00 Build 0)  -->
<svg version="1.1" id="layer" xmlns="http://www.w3.org/2000/svg" xmlns:xlink="http://www.w3.org/1999/xlink" x="0px" y="0px"
	 viewBox="0 0 820.2 780.8" style="enable-background:new 0 0 820.2 780.8;" xml:space="preserve">
<style type="text/css">
	.st0{opacity:0.5;}
	.st1{fill:#47E6B1;}
	.st2{opacity:0.5;fill:#4D8AF0;enable-background:new    ;}
	.st3{opacity:0.5;fill:#FDD835;enable-background:new    ;}
	.st4{opacity:0.5;fill:#F55F44;enable-background:new    ;}
	.st5{opacity:0.5;fill:#47E6B1;enable-background:new    ;}
	.st6{opacity:0.4;fill:#D4D4D4;enable-background:new    ;}
	.st7{display:none;}
	.st8{fill:#FFFFFF;}
</style>
<g class="st0">
	<rect x="15.3" y="737" class="st1" width="3.8" height="21.3"/>
	<rect x="6.5" y="745.8" class="st1" width="21.3" height="3.8"/>
</g>
<g class="st0">
	<rect x="451.5" class="st1" width="3.8" height="21.3"/>
	<rect x="442.7" y="8.8" class="st1" width="21.3" height="3.8"/>
</g>
<path class="st2" d="M771.1,772.6c-2.1-0.9-3.3-3.3-2.6-5.6c0.1-0.2,0.1-0.3,0.1-0.5l0,0c0.1-1.3-0.9-2.4-2.2-2.4
	c-0.8,0-1.5,0.3-2,0.9l0,0c-0.1,0.1-0.2,0.3-0.3,0.5c-0.9,2.1-3.3,3.3-5.6,2.6c-0.2-0.1-0.3-0.1-0.5-0.1l0,0
	c-1.3-0.1-2.4,0.9-2.4,2.2c0,0.8,0.3,1.5,0.9,2l0,0c0.1,0.1,0.3,0.2,0.5,0.3c2.1,0.9,3.3,3.3,2.6,5.6c-0.1,0.2-0.1,0.3-0.1,0.5l0,0
	c-0.1,1.3,0.9,2.4,2.2,2.4c0.8,0,1.5-0.3,2-0.9l0,0c0.1-0.1,0.2-0.3,0.3-0.5c0.9-2.1,3.3-3.3,5.6-2.6c0.2,0.1,0.3,0.1,0.5,0.1l0,0
	c1.3,0.1,2.4-0.9,2.4-2.2c0-0.8-0.3-1.5-0.9-2l0,0C771.4,772.7,771.2,772.6,771.1,772.6z"/>
<path class="st3" d="M136.7,567.5c-2.1-0.9-3.3-3.3-2.6-5.6c0.1-0.2,0.1-0.3,0.1-0.5l0,0c0.1-1.3-0.9-2.4-2.2-2.4
	c-0.8,0-1.5,0.3-2,0.9l0,0c-0.1,0.1-0.2,0.3-0.3,0.5c-0.9,2.1-3.3,3.3-5.6,2.6c-0.2-0.1-0.3-0.1-0.5-0.1l0,0
	c-1.3-0.1-2.4,0.9-2.4,2.2c0,0.8,0.3,1.5,0.9,2l0,0c0.1,0.1,0.3,0.2,0.5,0.3c2.1,0.9,3.3,3.3,2.6,5.6c-0.1,0.2-0.1,0.3-0.1,0.5l0,0
	c-0.1,1.3,0.9,2.4,2.2,2.4c0.8,0,1.5-0.3,2-0.9l0,0c0.1-0.1,0.2-0.3,0.3-0.5c0.9-2.1,3.3-3.3,5.6-2.6c0.2,0.1,0.3,0.1,0.5,0.1l0,0
	c1.3,0.1,2.4-0.9,2.4-2.2c0-0.8-0.3-1.5-0.9-2l0,0C137,567.7,136.8,567.6,136.7,567.5z"/>
<path class="st3" d="M665.1,68.2c-2.1-0.9-3.3-3.3-2.6-5.6c0.1-0.2,0.1-0.3,0.1-0.5l0,0c0.1-1.3-0.9-2.4-2.2-2.4
	c-0.8,0-1.5,0.3-2,0.9l0,0c-0.1,0.1-0.2,0.3-0.3,0.4c-0.9,2.1-3.3,3.3-5.6,2.6c-0.2-0.1-0.3-0.1-0.5-0.1l0,0
	c-1.3-0.1-2.4,0.9-2.4,2.2c0,0.8,0.3,1.5,0.9,2l0,0c0.1,0.1,0.3,0.2,0.5,0.3c2.1,0.9,3.3,3.3,2.6,5.6c-0.1,0.2-0.1,0.3-0.1,0.5l0,0
	c-0.1,1.3,0.9,2.4,2.2,2.4c0.8,0,1.5-0.3,2-0.9l0,0c0.1-0.1,0.2-0.3,0.3-0.4c0.9-2.1,3.3-3.3,5.6-2.6c0.2,0.1,0.3,0.1,0.5,0.1l0,0
	c1.3,0.1,2.4-0.9,2.4-2.2c0-0.8-0.3-1.5-0.9-2l0,0C665.4,68.3,665.2,68.2,665.1,68.2z"/>
<circle class="st4" cx="812.6" cy="314.5" r="7.5"/>
<circle class="st4" cx="230.7" cy="746.7" r="7.5"/>
<circle class="st4" cx="735.3" cy="477.2" r="7.5"/>
<circle class="st2" cx="87.1" cy="96.3" r="7.5"/>
<circle class="st5" cx="7.5" cy="301.8" r="7.5"/>
<g>
	<path class="st6" d="M724,390.4c0,100.7-47.4,190.3-121.1,247.7c-53.2,41.5-120.1,66.2-192.8,66.2c-93.1,0-176.8-40.6-234.2-105.1
		l-0.1,0.1c-49.5-55.5-79.6-128.7-79.6-208.9c0-173.3,140.5-313.9,313.9-313.9S724,217.1,724,390.4z"/>
	<path class="st7" d="M307.7,135.6h-11.8c-1.5,0-2.9,0.3-4.3,0.8c-6.9,2.2-12.1,9.7-12.1,18.5v8.1v20.9v10.9c0,2,0.3,3.9,0.8,5.7
		c2.1,7.8,8.2,13.6,15.6,13.6h11.8c9.1,0,16.4-8.6,16.4-19.3v-10.9V163v-8.1C324.1,144.3,316.7,135.6,307.7,135.6z M540.7,135.6
		h-11.8c-9.1,0-16.4,8.6-16.4,19.3v8.1v20.9v10.9c0,10.7,7.3,19.3,16.4,19.3h11.8c9.1,0,16.4-8.6,16.4-19.3v-10.9V163v-8.1
		C557.1,144.3,549.8,135.6,540.7,135.6z M601.2,183.9h-29.3v10.9c0,18.8-14,34.1-31.2,34.1h-11.8c-17.2,0-31.2-15.3-31.2-34.1v-10.9
		H338.8v10.9c0,18.8-14,34.1-31.2,34.1h-11.8c-17.2,0-31.2-15.3-31.2-34.1v-10.9h-25.5c-16.3,0-29.5,12.4-29.5,27.6v367.9
		c0,15.3,13.2,27.6,29.5,27.6h362c16.3,0,29.5-12.3,29.5-27.6V211.6C630.6,196.3,617.5,183.9,601.2,183.9z M592,566.5l-344.8-0.1
		V269.8H592V566.5z"/>
	<g>
		<path class="st8" d="M254,584.4c-11.6,0-21.1-8.7-21.1-19.5V247.6c0-10.8,9.5-19.5,21.1-19.5h17.7v5.1c0,18.5,14,33.7,31.2,33.7
			h10.2c17.2,0,31.2-15.1,31.2-33.7v-5.1h128.4v5.1c0,18.5,14,33.7,31.2,33.7h10.2c17.2,0,31.2-15.1,31.2-33.7v-5.1h21
			c5.7,0,11,2.1,15,5.8c3.9,3.7,6,8.5,6,13.7V565c0,10.8-9.5,19.5-21.1,19.5L254,584.4L254,584.4z M256.6,558l306.1,0.1V293.5H256.6
			V558z M504,245.4c-5.4,0-9.8-5.5-9.8-12.3v-34.4c0-6.8,4.4-12.3,9.8-12.3h10.2c5.4,0,9.8,5.5,9.8,12.3v34.4
			c0,6.8-4.4,12.3-9.8,12.3L504,245.4L504,245.4z M302.9,245.4c-4.2,0-7.9-3.5-9.2-8.5c-0.3-1.5-0.6-2.7-0.6-3.9v-34.4
			c0-5.6,3-10.4,7.4-11.9c0.9-0.3,1.7-0.4,2.4-0.4h10.2c5.4,0,9.8,5.5,9.8,12.3V233c0,6.8-4.4,12.3-9.8,12.3L302.9,245.4
			L302.9,245.4z"/>
		<path class="st8" d="M518.9,402.6c-2.2-3.4-5.6-5.7-9.5-6.5c2.5-4.8,2.4-10.9-0.8-15.7c-2.3-3.5-5.7-5.7-9.5-6.5
			c0.7-1.3,1.2-2.7,1.5-4.1c0.8-4,0-8.2-2.3-11.6c-2.2-3.4-5.6-5.7-9.5-6.5c2.5-4.8,2.4-10.9-0.8-15.7c-4.7-7.1-14.3-9.1-21.4-4.4
			l-15.4,10.2c-8.2-4.2-16.9-7.1-26-8.8c-2.9-4.3-6.2-8.4-9.9-12l-6.4-6.2c-4.7-4.5-12-5.2-17.4-1.6c-6.4,4.2-8.2,12.9-3.9,19.3
			c0.2,0.3,0.3,0.5,0.5,0.8c-20.9,4.2-39.9,15.3-54,31.5c-15.3,17.6-23.7,40.2-23.7,63.5c0,4.5,0.3,9,0.9,13.3
			c4.7,33.9,27.2,63.1,58.9,76.3c11.8,4.9,24.2,7.3,37.1,7.3c20.3,0,39.8-6.2,56.3-18c16.1-11.5,28.2-27.4,34.9-46
			c0.6-1.7-0.3-3.6-2-4.3c-1.7-0.6-3.6,0.3-4.3,2c-6.2,17.3-17.5,32.1-32.5,42.8c-15.4,11-33.5,16.8-52.4,16.8
			c-9.8,0-19.3-1.5-28.5-4.6l27.1-18c0,0,0,0,0,0c0,0,0,0,0,0l22.5-14.9h0c2-1.3,3.4-3.4,3.9-5.8c0.5-2.4,0-4.8-1.3-6.8l-0.3-0.5
			l4.4-2.9c3.1-2.1,6.9-2.9,10.6-2.3c5.4,0.9,10.8-0.3,15.3-3.3l36.3-24c-0.2,3.1-0.7,6.3-1.2,9.4c-0.3,1.8,0.9,3.5,2.7,3.9
			c0.2,0,0.4,0.1,0.6,0.1c1.6,0,3-1.1,3.3-2.7c0.9-5,1.5-10.1,1.6-15.2l10.2-6.8c3.4-2.3,5.8-5.8,6.6-9.8
			C522,410.2,521.2,406.1,518.9,402.6z M444.7,346l-10.2,6.7l-2-5.4c-0.8-2.3-1.8-4.5-2.9-6.6C434.8,342,439.9,343.8,444.7,346z
			 M339.2,369.1c13.5-15.6,31.9-26.1,52.1-29.7c3.2,7.8,4,16.6,2.1,24.9l-8.1,35.1c-1.3-1.4-2.9-2.3-4.8-2.7c-2.4-0.5-4.8,0-6.8,1.3
			l-23,15.2c0,0,0,0,0,0c0,0,0,0,0,0l-33.2,22c-0.2-2.3-0.3-4.7-0.3-7.1C317.1,406.5,325,385.5,339.2,369.1z M425.9,473.9
			c-0.1,0.6-0.5,1.2-1,1.5h0l-19.8,13.1l-36.7-54.8c-1-1.5-3.1-1.9-4.6-0.9c-1.5,1-1.9,3.1-0.9,4.6l36.7,54.7l-28.3,18.7
			c-28.1-12.3-48.2-38.2-53-68.4l33.2-21.9l3.8,5.7c0.6,1,1.7,1.5,2.8,1.5c0.6,0,1.3-0.2,1.9-0.6c1.5-1,1.9-3.1,0.9-4.6l-3.8-5.7
			l20.2-13.3c0.5-0.4,1.2-0.5,1.8-0.4c0.6,0.1,1.2,0.5,1.5,1l44.9,67.8C425.9,472.6,426,473.2,425.9,473.9z M514.6,412.9
			c-0.5,2.3-1.8,4.3-3.8,5.6l-11.7,7.7c0,0,0,0,0,0l-41.7,27.6c-3.1,2.1-6.9,2.9-10.6,2.3c-5.4-0.9-10.8,0.3-15.3,3.3l-4.4,2.9
			l-36.8-55.5l9.5-41.1c2.4-10.6,1.2-21.7-3.5-31.4c0-0.1-0.1-0.2-0.1-0.3c-0.9-1.8-1.9-3.6-3-5.3c-2.2-3.3-1.3-7.9,2-10.1
			c2.8-1.9,6.6-1.5,9.1,0.8l6.4,6.2c6.9,6.7,12.3,15,15.6,23.9l3.5,9.3c0,0,0,0,0,0c0,0,0,0,0,0.1c0,0.1,0,0.1,0.1,0.2
			c0.1,0.1,0.1,0.3,0.2,0.4c1,1.5,3.1,2,4.6,0.9l35.5-23.5c4-2.7,9.5-1.6,12.2,2.5s1.6,9.5-2.5,12.2l-3.1,2c0,0,0,0,0,0l-6.9,4.6
			c0,0,0,0,0,0c0,0-0.1,0.1-0.1,0.1c-1.4,1-1.8,3-0.8,4.5c1,1.5,3.1,2,4.6,0.9l6.9-4.6c2-1.3,4.3-1.7,6.6-1.3s4.3,1.8,5.6,3.8
			c1.3,2,1.8,4.3,1.3,6.6c-0.5,2.3-1.8,4.3-3.8,5.6l-10,6.6c-1.5,1-2,3.1-0.9,4.6c0.6,1,1.7,1.5,2.8,1.5c0.6,0,1.3-0.2,1.8-0.6
			l1.5-1l5.3-3.5c4-2.7,9.5-1.6,12.2,2.5c2.7,4,1.6,9.5-2.5,12.2l-5,3.3c0,0-0.1,0-0.1,0.1l-4.9,3.3c-1.5,1-2,3.1-0.9,4.6
			c0.6,1,1.7,1.5,2.8,1.5c0.6,0,1.3-0.2,1.8-0.6l1.5-1c0,0,0,0,0,0l5.3-3.5c2-1.3,4.3-1.8,6.6-1.3c2.3,0.5,4.3,1.8,5.6,3.8
			C514.6,408.3,515.1,410.6,514.6,412.9z"/>
	</g>
</g>
</svg>
