<?xml version="1.0" encoding="utf-8"?>
<!-- Generator: Adobe Illustrator 25.0.1, SVG Export Plug-In . SVG Version: 6.00 Build 0)  -->
<svg version="1.1" id="f20e0c25-d928-42cc-98d1-13cc230663ea"
	 xmlns="http://www.w3.org/2000/svg" xmlns:xlink="http://www.w3.org/1999/xlink" x="0px" y="0px" viewBox="0 0 820.2 780.8"
	 style="enable-background:new 0 0 820.2 780.8;" xml:space="preserve">
<style type="text/css">
	.st0{opacity:0.5;}
	.st1{fill:#47E6B1;}
	.st2{opacity:0.5;fill:#4D8AF0;enable-background:new    ;}
	.st3{opacity:0.5;fill:#FDD835;enable-background:new    ;}
	.st4{opacity:0.5;fill:#F55F44;enable-background:new    ;}
	.st5{opacity:0.5;fill:#47E6B1;enable-background:new    ;}
	.st6{opacity:0.4;fill:#D4D4D4;enable-background:new    ;}
	.st7{display:none;}
	.st8{fill:#FFFFFF;}
	.st9{display:none;fill:#FFFFFF;}
</style>
<g class="st0">
	<rect x="15.3" y="737" class="st1" width="3.8" height="21.3"/>
	<rect x="6.5" y="745.8" class="st1" width="21.3" height="3.8"/>
</g>
<g class="st0">
	<rect x="451.5" class="st1" width="3.8" height="21.3"/>
	<rect x="442.7" y="8.8" class="st1" width="21.3" height="3.8"/>
</g>
<path class="st2" d="M771.1,772.6c-2.1-0.9-3.3-3.3-2.6-5.6c0.1-0.2,0.1-0.3,0.1-0.5l0,0c0.1-1.3-0.9-2.4-2.2-2.4
	c-0.8,0-1.5,0.3-2,0.9l0,0c-0.1,0.1-0.2,0.3-0.3,0.5c-0.9,2.1-3.3,3.3-5.6,2.6c-0.2-0.1-0.3-0.1-0.5-0.1l0,0
	c-1.3-0.1-2.4,0.9-2.4,2.2c0,0.8,0.3,1.5,0.9,2l0,0c0.1,0.1,0.3,0.2,0.5,0.3c2.1,0.9,3.3,3.3,2.6,5.6c-0.1,0.2-0.1,0.3-0.1,0.5l0,0
	c-0.1,1.3,0.9,2.4,2.2,2.4c0.8,0,1.5-0.3,2-0.9l0,0c0.1-0.1,0.2-0.3,0.3-0.5c0.9-2.1,3.3-3.3,5.6-2.6c0.2,0.1,0.3,0.1,0.5,0.1l0,0
	c1.3,0.1,2.4-0.9,2.4-2.2c0-0.8-0.3-1.5-0.9-2l0,0C771.4,772.7,771.2,772.6,771.1,772.6z"/>
<path class="st3" d="M136.7,567.5c-2.1-0.9-3.3-3.3-2.6-5.6c0.1-0.2,0.1-0.3,0.1-0.5l0,0c0.1-1.3-0.9-2.4-2.2-2.4
	c-0.8,0-1.5,0.3-2,0.9l0,0c-0.1,0.1-0.2,0.3-0.3,0.5c-0.9,2.1-3.3,3.3-5.6,2.6c-0.2-0.1-0.3-0.1-0.5-0.1l0,0
	c-1.3-0.1-2.4,0.9-2.4,2.2c0,0.8,0.3,1.5,0.9,2l0,0c0.1,0.1,0.3,0.2,0.5,0.3c2.1,0.9,3.3,3.3,2.6,5.6c-0.1,0.2-0.1,0.3-0.1,0.5l0,0
	c-0.1,1.3,0.9,2.4,2.2,2.4c0.8,0,1.5-0.3,2-0.9l0,0c0.1-0.1,0.2-0.3,0.3-0.5c0.9-2.1,3.3-3.3,5.6-2.6c0.2,0.1,0.3,0.1,0.5,0.1l0,0
	c1.3,0.1,2.4-0.9,2.4-2.2c0-0.8-0.3-1.5-0.9-2l0,0C137,567.7,136.8,567.6,136.7,567.5z"/>
<path class="st3" d="M665.1,68.2c-2.1-0.9-3.3-3.3-2.6-5.6c0.1-0.2,0.1-0.3,0.1-0.5l0,0c0.1-1.3-0.9-2.4-2.2-2.4
	c-0.8,0-1.5,0.3-2,0.9l0,0c-0.1,0.1-0.2,0.3-0.3,0.4c-0.9,2.1-3.3,3.3-5.6,2.6c-0.2-0.1-0.3-0.1-0.5-0.1l0,0
	c-1.3-0.1-2.4,0.9-2.4,2.2c0,0.8,0.3,1.5,0.9,2l0,0c0.1,0.1,0.3,0.2,0.5,0.3c2.1,0.9,3.3,3.3,2.6,5.6c-0.1,0.2-0.1,0.3-0.1,0.5l0,0
	c-0.1,1.3,0.9,2.4,2.2,2.4c0.8,0,1.5-0.3,2-0.9l0,0c0.1-0.1,0.2-0.3,0.3-0.4c0.9-2.1,3.3-3.3,5.6-2.6c0.2,0.1,0.3,0.1,0.5,0.1l0,0
	c1.3,0.1,2.4-0.9,2.4-2.2c0-0.8-0.3-1.5-0.9-2l0,0C665.4,68.3,665.2,68.2,665.1,68.2z"/>
<circle class="st4" cx="812.6" cy="314.5" r="7.5"/>
<circle class="st4" cx="230.7" cy="746.7" r="7.5"/>
<circle class="st4" cx="735.3" cy="477.2" r="7.5"/>
<circle class="st2" cx="87.1" cy="96.3" r="7.5"/>
<circle class="st5" cx="7.5" cy="301.8" r="7.5"/>
<g>
	<path class="st6" d="M724,390.4c0,100.7-47.4,190.3-121.1,247.7c-53.2,41.5-120.1,66.2-192.8,66.2c-93.1,0-176.8-40.6-234.2-105.1
		l-0.1,0.1c-49.5-55.5-79.6-128.7-79.6-208.9c0-173.3,140.5-313.9,313.9-313.9S724,217.1,724,390.4z"/>
	<path class="st7" d="M307.7,135.6h-11.8c-1.5,0-2.9,0.3-4.3,0.8c-6.9,2.2-12.1,9.7-12.1,18.5v8.1v20.9v10.9c0,2,0.3,3.9,0.8,5.7
		c2.1,7.8,8.2,13.6,15.6,13.6h11.8c9.1,0,16.4-8.6,16.4-19.3v-10.9V163v-8.1C324.1,144.3,316.7,135.6,307.7,135.6z M540.7,135.6
		h-11.8c-9.1,0-16.4,8.6-16.4,19.3v8.1v20.9v10.9c0,10.7,7.3,19.3,16.4,19.3h11.8c9.1,0,16.4-8.6,16.4-19.3v-10.9V163v-8.1
		C557.1,144.3,549.8,135.6,540.7,135.6z M601.2,183.9h-29.3v10.9c0,18.8-14,34.1-31.2,34.1h-11.8c-17.2,0-31.2-15.3-31.2-34.1v-10.9
		H338.8v10.9c0,18.8-14,34.1-31.2,34.1h-11.8c-17.2,0-31.2-15.3-31.2-34.1v-10.9h-25.5c-16.3,0-29.5,12.4-29.5,27.6v367.9
		c0,15.3,13.2,27.6,29.5,27.6h362c16.3,0,29.5-12.3,29.5-27.6V211.6C630.6,196.3,617.5,183.9,601.2,183.9z M592,566.5l-344.8-0.1
		V269.8H592V566.5z"/>
	<g>
		<path class="st8" d="M254,584.4c-11.6,0-21.1-8.7-21.1-19.5V247.6c0-10.8,9.5-19.5,21.1-19.5h17.7v5.1c0,18.5,14,33.7,31.2,33.7
			h10.2c17.2,0,31.2-15.1,31.2-33.7v-5.1h128.4v5.1c0,18.5,14,33.7,31.2,33.7h10.2c17.2,0,31.2-15.1,31.2-33.7v-5.1h21
			c5.7,0,11,2.1,15,5.8c3.9,3.7,6,8.5,6,13.7V565c0,10.8-9.5,19.5-21.1,19.5L254,584.4L254,584.4z M256.6,558l306.1,0.1V293.5H256.6
			V558z M504,245.4c-5.4,0-9.8-5.5-9.8-12.3v-34.4c0-6.8,4.4-12.3,9.8-12.3h10.2c5.4,0,9.8,5.5,9.8,12.3v34.4
			c0,6.8-4.4,12.3-9.8,12.3L504,245.4L504,245.4z M302.9,245.4c-4.2,0-7.9-3.5-9.2-8.5c-0.3-1.5-0.6-2.7-0.6-3.9v-34.4
			c0-5.6,3-10.4,7.4-11.9c0.9-0.3,1.7-0.4,2.4-0.4h10.2c5.4,0,9.8,5.5,9.8,12.3V233c0,6.8-4.4,12.3-9.8,12.3L302.9,245.4
			L302.9,245.4z"/>
		<path class="st9" d="M495.2,467.3c-2.9-1.6-6.6-0.5-8.2,2.4c-1.6,2.9-0.5,6.6,2.4,8.2c7.2,4,11.3,8.3,11.3,12
			c0,4.5-6.4,11.5-24.3,17.6c-17.7,6-41.4,9.3-66.7,9.3c-25.3,0-49-3.3-66.7-9.3c-17.9-6.1-24.3-13.1-24.3-17.6
			c0-3.7,4.1-8.1,11.3-12c2.9-1.6,4-5.3,2.4-8.2c-1.6-2.9-5.3-4-8.2-2.4c-8,4.4-17.6,11.9-17.6,22.6c0,8.2,5.6,19.9,32.5,29
			c18.9,6.4,44,10,70.6,10c26.6,0,51.7-3.5,70.6-10c26.9-9.1,32.5-20.8,32.5-29C512.8,479.2,503.2,471.7,495.2,467.3z M364,498.8
			c12.3,3.5,28.5,5.4,45.6,5.4c17.2,0,33.4-1.9,45.6-5.4c15-4.2,22.6-10.4,22.6-18.2c0-7.9-7.6-14-22.6-18.2
			c-3.3-0.9-7-1.8-10.8-2.5c-2.1,3.6-4.3,7.3-6.6,11.2c4.3,0.6,8.3,1.4,11.9,2.4c11,2.8,15.1,6,15.9,7.2c-0.8,1.2-4.9,4.4-15.9,7.2
			c-10.5,2.7-23.9,4.2-38.1,4.3c-0.7,0.1-1.4,0.1-2.1,0.1c-0.7,0-1.4,0-2.1-0.1c-14.2-0.1-27.6-1.7-38.1-4.3
			c-11-2.8-15.1-6-15.9-7.2c0.8-1.2,4.9-4.4,15.9-7.2c3.6-0.9,7.6-1.7,11.9-2.4c-2.3-3.8-4.5-7.5-6.6-11.2
			c-3.9,0.7-7.5,1.5-10.8,2.5c-15,4.2-22.6,10.4-22.6,18.2S349,494.5,364,498.8z M409.7,480c5.4,0,10.3-2.7,13.1-7.3
			c19.7-32.2,43.1-74.6,43.1-93.9c0-31-25.2-56.2-56.2-56.2s-56.2,25.2-56.2,56.2c0,19.3,23.4,61.7,43.1,93.9
			C399.4,477.3,404.3,480,409.7,480z M387.1,375c0-12.5,10.1-22.6,22.6-22.6c12.5,0,22.6,10.1,22.6,22.6c0,12.5-10.1,22.6-22.6,22.6
			C397.2,397.6,387.1,387.4,387.1,375z"/>
		<path class="st8" d="M436.8,481.1h-12.7c-1.9,0-3.4,1.5-3.4,3.4c0,1.9,1.5,3.4,3.4,3.4h12.7c1.9,0,3.4-1.5,3.4-3.4
			C440.1,482.6,438.6,481.1,436.8,481.1z M511.3,444.8l-18.4-7.1l-9.4-9.4c-0.6-0.6-1.4-0.9-2.2-1v-7.5c4.4-4.7,7.6-10.7,8.9-17.4
			c0.8,0,1.6,0,2.4-0.2c4.5-0.9,7.8-5.1,7.8-9.9v-2.5c0-2.8-1.1-5.4-3-7.2c3-16.3,0.5-29.5-7.2-38.4c-7.4-8.6-19.4-12.7-34.6-11.9
			c-14.1,0.8-23.1,7.2-26,9.6c-1.6,0.2-4.3,0.7-7,2.4c-3.8,2.3-8.2,7-8.2,16.8c0,8.5,1.4,15.6,2.3,19.7c-3.3,1.6-5.5,5.1-5.5,9.1
			v2.4c0,4.8,3.3,9,7.8,9.9c0.8,0.2,1.6,0.2,2.4,0.2c1.3,6.7,4.4,12.7,8.9,17.4v7.5c-0.8,0.1-1.6,0.4-2.2,1l-9.4,9.4l-18.4,7.1
			c-1.6,0.6-3.1,1.4-4.5,2.4c-1.5,1.1-1.9,3.2-0.9,4.7c0.7,1,1.7,1.5,2.8,1.5c0.7,0,1.3-0.2,1.9-0.6c1-0.7,2-1.2,3.2-1.7l17.1-6.6
			l13.1,19.6c1.6,2.4,4.2,4,7.1,4.3c0.3,0,0.6,0,1,0c1.7,0,3.3-0.4,4.8-1.3l-2.8,63.7c-0.1,1.9,1.4,3.4,3.2,3.5c0.1,0,0.1,0,0.2,0
			c1.8,0,3.3-1.4,3.4-3.2l2.6-59.1h7l2.6,59.1c0.1,1.8,1.6,3.2,3.4,3.2c0.1,0,0.1,0,0.2,0c1.9-0.1,3.3-1.7,3.2-3.5l-2.8-63.7
			c1.4,0.8,3.1,1.3,4.8,1.3c0.3,0,0.6,0,1,0c2.9-0.3,5.5-1.8,7.1-4.3l13.1-19.6l17.1,6.6c2.4,0.9,4.5,2.4,6.1,4.2l-11.7,11.7
			c-4.2,4.2-6.6,9.9-6.6,15.8v48.1c0,1.9,1.5,3.4,3.4,3.4s3.4-1.5,3.4-3.4v-48.1c0-4.2,1.6-8.1,4.6-11l10.3-10.3
			c0.4,1.5,0.6,3.1,0.5,4.7l-2.6,64.6c-0.1,1.9,1.4,3.4,3.2,3.5c0,0,0.1,0,0.1,0c1.8,0,3.3-1.4,3.4-3.2l2.6-64.6
			C526,457,520.3,448.3,511.3,444.8z M428,401c-0.6-3.3-3.6-5.6-6.9-5.4c-0.3,0-0.5,0-0.8-0.1c-1.3-0.3-2.4-1.7-2.4-3.3v-2.4
			c0-1.6,1-3,2.4-3.2c1.1-0.2,2.2,0.2,2.9,1.1c0.6,0.8,1.5,1.4,2.4,1.7c1.4,0.4,2.9,0.2,4.1-0.7c2.1-1.5,4-3.3,5.6-5.4
			c1.1-1.5,0.8-3.6-0.7-4.7c-1.5-1.1-3.6-0.8-4.7,0.7c-0.8,1.1-1.7,2-2.6,2.8c-1.1-0.9-2.3-1.6-3.7-2c-0.9-3.3-2.4-10.5-2.4-19.1
			c0-5.2,1.6-8.8,4.8-10.8c2.5-1.6,5.1-1.6,5.1-1.6c0.9,0,1.7-0.3,2.3-0.9c0.1-0.1,8.4-7.8,22.7-8.6c13-0.7,23.1,2.6,29.1,9.5
			c6.1,7,8.1,17.7,5.9,31.2c-0.9,0-1.9,0-2.9,0.2l-3.2-7.6c-0.6-1.6-2.3-2.4-4-2c-0.3,0.1-31.6,8-44.7-8.3c-1.2-1.5-3.3-1.7-4.8-0.5
			c-1.5,1.2-1.7,3.3-0.5,4.8c13.4,16.7,40,13,48.8,11.3l2.5,5.9c1.1,2.5,3.8,3.9,6.4,3.3c1.1-0.3,2.1-0.3,2.5-0.2
			c1.4,0.3,2.4,1.6,2.4,3.2v2.5c0,1.6-1,3-2.4,3.3c-0.3,0.1-0.5,0.1-0.8,0.1c-3.2-0.2-6.3,2.1-6.9,5.4
			c-2.5,13.4-14.1,23.1-27.8,23.1C442.1,424.2,430.4,414.4,428,401z M443,460.9c-0.9,0.9-1.9,0.9-2.4,0.8c-0.5-0.1-1.5-0.3-2.2-1.3
			l-13.2-19.8l5.3-5.3l20.2,17.7L443,460.9z M452.5,465.3l0.2-4.7l3-3l3,3l0.2,4.7H452.5z M455.8,448.4L437,431.9v-6.5
			c5.5,3.5,11.9,5.5,18.8,5.5c6.9,0,13.3-2,18.8-5.5v6.5L455.8,448.4z M473.1,460.4c-0.7,1-1.6,1.2-2.2,1.3c-0.5,0.1-1.5,0-2.4-0.8
			l-7.8-7.8l20.2-17.7l5.3,5.3L473.1,460.4z M401.9,462.6l-16.5-7.2l-9-9c-0.6-0.6-1.4-0.9-2.2-1V440c7.7-5.1,13.4-13.1,15.2-22.8
			c0.9,0,1.8,0,2.7-0.3c4.3-1,7.5-5.2,7.5-9.9v-2.5c0-3.4-1.7-6.5-4.3-8.3c0.8-3.1,1.2-6.2,1.2-9.4c0-14-7.6-26.4-19-33.5
			c-0.1-11.7-10.1-21.2-22.4-21.2c-12.3,0-22.3,9.5-22.4,21.2c-11.4,7.1-19,19.4-19,33.5c0,3.2,0.4,6.3,1.2,9.4
			c-2.6,1.8-4.3,4.9-4.3,8.4v2.4c0,4.7,3.1,8.8,7.5,9.9c0.9,0.2,1.8,0.3,2.7,0.3c1.8,9.6,7.5,17.7,15.2,22.8v5.3
			c-0.8,0.1-1.6,0.4-2.2,1l-9,9l-16.5,7.2c-8.4,3.7-13.8,12.3-13.4,21.5l2,47.2c0.1,1.8,1.6,3.2,3.4,3.2c0,0,0.1,0,0.1,0
			c1.9-0.1,3.3-1.7,3.2-3.5l-2-47.2c-0.1-3,0.7-6,2.1-8.5l8.9,10.7c2.8,3.4,4.4,7.6,4.4,12v33.2c0,1.9,1.5,3.4,3.4,3.4
			s3.4-1.5,3.4-3.4v-33.2c0-6-2.1-11.8-5.9-16.4l-9.4-11.3c0.8-0.6,1.7-1,2.6-1.4l14.4-6.3l10.2,16.5c1,1.6,2.7,2.7,4.6,3
			c0.3,0.1,0.7,0.1,1,0.1c1.5,0,3.1-0.5,4.3-1.6l6.5-5.5v56c0,1.9,1.5,3.4,3.4,3.4c1.9,0,3.4-1.5,3.4-3.4v-56l6.5,5.5
			c1.2,1,2.7,1.6,4.3,1.6c0.3,0,0.7,0,1-0.1c1.9-0.3,3.6-1.4,4.6-3l10.2-16.5l14.4,6.3c0.9,0.4,1.8,0.9,2.6,1.4l-9.4,11.3
			c-3.8,4.6-5.9,10.4-5.9,16.4v33.2c0,1.9,1.5,3.4,3.4,3.4s3.4-1.5,3.4-3.4v-33.2c0-4.4,1.5-8.7,4.4-12l8.9-10.7
			c1.5,2.5,2.3,5.5,2.1,8.5l-2,47.2c-0.1,1.9,1.4,3.4,3.2,3.5c0,0,0.1,0,0.1,0c1.8,0,3.3-1.4,3.4-3.2l2-47.2
			C415.7,474.9,410.3,466.2,401.9,462.6z M354.9,339c7.2,0,13.3,4.6,15.1,10.8c-4.7-1.8-9.8-2.7-15.1-2.7c-5.3,0-10.4,1-15.1,2.7
			C341.7,343.6,347.7,339,354.9,339z M327.1,415.8c-0.6-3.3-3.6-5.6-6.9-5.4c-0.3,0-0.6,0-0.9-0.1c-1.3-0.3-2.3-1.7-2.3-3.3v-2.4
			c0-1.6,1-3,2.4-3.2c1.1-0.2,2.2,0.2,2.9,1.1c0.6,0.8,1.5,1.4,2.4,1.7c1.4,0.4,2.9,0.2,4.1-0.7c2.1-1.5,3.9-3.3,5.5-5.3
			c1.1-1.5,0.8-3.6-0.7-4.7c-1.5-1.1-3.6-0.8-4.7,0.7c-0.8,1-1.6,2-2.6,2.8c-1.4-1.2-3.2-2-5.1-2.2c-0.6-2.6-1-5.2-1-7.8
			c0-18.2,15.5-33,34.6-33c19.1,0,34.6,14.8,34.6,33c0,2.6-0.3,5.2-1,7.8c-0.9,0.1-1.8,0.2-2.6,0.4l-2.5-2.1
			c-1.3-1.1-2.9-1.6-4.5-1.5c-5,0.3-30.5,1-43.5-14.7c-1.2-1.4-3.3-1.6-4.8-0.4c-1.4,1.2-1.6,3.3-0.4,4.8
			c6.4,7.7,15.9,12.9,28.1,15.5c9.3,2,17.7,1.8,20.9,1.6l4,3.3c1.1,0.9,2.6,1,3.8,0.3c0.6-0.3,2.5-0.6,3.3-0.4
			c1.4,0.3,2.4,1.6,2.4,3.2v2.5c0,1.6-1,3-2.3,3.3c-0.3,0.1-0.6,0.1-0.9,0.1c-3.2-0.2-6.3,2.1-6.9,5.4
			c-2.5,13.4-14.1,23.1-27.8,23.1C341.3,439,329.6,429.3,327.1,415.8z M340.9,475.2l-10.2-16.5l5.2-5.2l14,14L340.9,475.2z
			 M354.9,462.9l-12.5-12.5v-7c3.9,1.5,8.1,2.3,12.5,2.3c4.4,0,8.6-0.8,12.5-2.3v7L354.9,462.9z M369,475.2l-9.1-7.7l14-14l5.2,5.2
			L369,475.2z M342.3,496h-9.5c-1.9,0-3.4,1.5-3.4,3.4s1.5,3.4,3.4,3.4h9.5c1.9,0,3.4-1.5,3.4-3.4S344.1,496,342.3,496z"/>
	</g>
</g>
</svg>
