<svg id="Layer_1" data-name="Layer 1" xmlns="http://www.w3.org/2000/svg" viewBox="0 0 196.71 222.75">
  <defs>
    <style>
      .cls-1 {
        fill: #156d9b;
      }
    </style>
  </defs>
  <path class="cls-1" d="M848.24,610.63H651.53V407.91h31.19a23,23,0,1,1,22.83,26v-6a17,17,0,1,0-16.76-20H706v6H657.53v30H842.24v-30H824.59v-6h23.65Zm-95.36-6h89.36V531.18H752.88Zm-95.35,0h89.36V531.18H657.53Zm95.35-79.45h89.36V450H752.88Zm-95.35,0h89.36V450H657.53Zm135.33-91.24v-6a17,17,0,0,0,0-34.06v-6a23,23,0,0,1,0,46.06Zm-58.26,0v-6a17,17,0,0,0,0-34.06v-6a23,23,0,0,1,0,46.06Zm29.3,0v-6a17,17,0,0,0,0-34.06v-6a23,23,0,0,1,0,46.06Z" transform="translate(-651.53 -387.88)"/>
  <path class="cls-1" d="M719,503.4H685.52v-6H719Zm0-13H685.52v-6H719Zm0-12H685.52v-6H719Z" transform="translate(-651.53 -387.88)"/>
  <polygon class="cls-1" points="43.19 198.59 32.92 183.93 37.84 180.49 43.34 188.35 61.41 165.09 68.37 165.09 43.19 198.59"/>
  <polygon class="cls-1" points="137.84 114.94 130.18 114.94 142.39 99.3 131.64 84.48 139.01 84.54 146.24 94.45 153.94 84.48 160.99 84.48 149.97 99.39 160.99 114.94 153.9 114.88 146.12 104.25 137.84 114.94"/>
  <path class="cls-1" d="M798,583a14.44,14.44,0,1,1,14.43-14.44A14.46,14.46,0,0,1,798,583Zm0-22.87a8.44,8.44,0,1,0,8.43,8.43A8.44,8.44,0,0,0,798,560.12Z" transform="translate(-651.53 -387.88)"/>
</svg>
